<?xml version="1.0" standalone="no"?>
<!DOCTYPE svg PUBLIC "-//W3C//DTD SVG 20010904//EN"
 "http://www.w3.org/TR/2001/REC-SVG-20010904/DTD/svg10.dtd">
<svg version="1.0" xmlns="http://www.w3.org/2000/svg"
 width="2237.000000pt" height="2237.000000pt" viewBox="0 0 2237.000000 2237.000000"
 preserveAspectRatio="xMidYMid meet">
<metadata>
Created by potrace 1.14, written by Peter Selinger 2001-2017
</metadata>
<g transform="translate(0.000000,2237.000000) scale(0.100000,-0.100000)"
fill="#000000" stroke="none">
<path d="M7330 13707 c0 -4 -11 -5 -25 -3 -14 3 -25 1 -25 -3 0 -4 -10 -7 -22
-6 -13 1 -27 0 -33 -4 -11 -6 -32 -12 -52 -13 -7 -1 -13 -5 -13 -10 0 -5 -4
-6 -10 -3 -5 3 -10 1 -10 -5 0 -6 -4 -9 -9 -5 -5 3 -12 1 -16 -5 -4 -6 -11 -8
-16 -5 -5 4 -9 1 -9 -6 0 -6 -8 -9 -20 -6 -11 3 -18 1 -14 -4 3 -5 -2 -9 -10
-9 -9 0 -16 -4 -16 -8 0 -5 -12 -15 -27 -23 -16 -7 -36 -20 -45 -29 -37 -33
-46 -39 -53 -32 -4 4 -5 2 -3 -4 1 -6 -11 -27 -29 -45 -72 -77 -92 -100 -94
-107 -7 -27 -24 -50 -33 -45 -6 3 -8 3 -4 -2 4 -4 -1 -24 -12 -45 -11 -21 -16
-40 -13 -44 4 -3 2 -6 -4 -6 -6 0 -14 -15 -18 -32 -9 -37 -12 -47 -15 -50 -2
-4 -6 -24 -13 -65 -3 -17 -8 -37 -12 -42 -3 -6 -1 -11 5 -11 7 0 8 -6 2 -17
-10 -21 -9 -104 1 -120 4 -7 3 -14 -3 -18 -6 -4 -8 -10 -5 -15 3 -4 7 -25 10
-46 3 -22 8 -50 11 -64 3 -14 7 -34 8 -45 2 -11 6 -27 9 -35 10 -26 31 -95 33
-109 2 -8 9 -18 16 -22 10 -7 10 -9 0 -9 -8 0 -4 -9 10 -23 19 -19 32 -22 93
-22 38 0 73 4 77 10 5 7 8 6 8 -1 0 -12 238 -13 257 -1 6 4 15 2 19 -4 4 -8 9
-7 15 2 5 9 9 10 9 2 0 -14 90 -12 90 2 0 6 3 6 8 0 9 -13 123 -15 115 -2 -4
6 -1 7 8 1 17 -10 129 -12 135 -2 3 4 12 4 21 1 11 -4 14 -3 9 5 -4 7 -2 12 5
12 7 0 9 3 6 7 -4 3 -2 12 4 20 6 7 8 13 3 13 -5 0 -4 4 3 8 6 4 14 19 17 34
2 14 9 35 15 46 6 11 7 22 4 26 -3 3 0 6 7 6 7 0 11 3 7 6 -3 4 0 19 9 35 8
16 12 29 8 29 -4 0 -1 7 6 15 6 8 8 20 4 26 -4 8 -3 9 4 5 7 -4 12 -1 12 8 0
9 11 23 25 32 21 14 28 14 42 3 14 -12 16 -12 9 1 -4 8 1 5 12 -7 11 -12 19
-32 18 -45 -1 -13 2 -26 6 -29 5 -3 9 -31 11 -62 1 -31 5 -57 8 -57 4 0 9 -17
12 -37 3 -21 8 -58 12 -83 4 -25 8 -55 8 -67 1 -13 4 -23 7 -23 3 0 7 -19 9
-42 1 -23 7 -49 14 -57 10 -12 9 -13 -3 -6 -13 8 -13 6 -2 -8 8 -9 12 -22 9
-29 -2 -7 0 -25 4 -40 5 -18 3 -29 -4 -32 -8 -3 -8 -5 1 -5 7 -1 10 -5 7 -11
-3 -5 -2 -10 4 -10 5 0 8 -10 6 -22 -3 -12 1 -28 8 -37 9 -12 9 -13 0 -7 -7 4
-13 2 -13 -3 0 -6 4 -11 9 -11 4 0 7 -15 6 -33 -1 -21 3 -34 11 -34 7 0 11 4
8 8 -2 4 0 10 4 13 5 3 9 20 10 38 2 40 9 79 17 86 2 3 0 11 -6 19 -9 10 -8
13 0 13 7 0 9 5 6 10 -3 6 -2 10 3 10 5 0 7 11 4 25 -2 14 1 32 8 40 10 12 10
15 -1 15 -10 0 -10 3 -2 11 6 6 9 18 6 25 -3 8 1 14 8 14 11 0 11 3 -1 10 -8
5 -10 10 -3 10 6 0 9 9 5 22 -4 16 -2 19 9 13 12 -8 12 -6 0 8 -7 9 -9 17 -4
17 5 0 9 15 10 33 1 41 6 68 17 86 6 10 5 12 -2 7 -7 -4 -12 -3 -12 3 0 5 4
12 9 16 5 3 8 17 5 30 -2 14 0 25 5 25 6 0 8 7 5 15 -4 9 0 15 7 15 9 0 10 3
4 8 -12 9 -18 32 -7 32 4 0 8 15 9 33 1 17 4 46 6 62 12 70 20 132 21 153 0
12 3 22 6 22 4 0 6 18 6 40 -1 22 2 40 6 40 5 0 6 11 4 25 -3 13 -1 27 3 29 4
3 7 23 7 46 -1 29 3 40 14 40 12 0 12 2 2 9 -18 11 -18 12 -3 39 9 17 9 22 -1
22 -10 0 -10 2 1 9 7 5 10 14 7 20 -4 6 -3 11 3 11 6 0 8 7 5 15 -4 8 0 23 7
32 12 14 12 16 0 8 -10 -6 -9 0 3 21 11 19 27 31 42 32 18 1 23 -2 18 -11 -5
-8 -2 -7 9 2 15 12 17 11 17 -3 0 -10 5 -14 10 -11 9 6 13 -16 14 -87 0 -16 3
-28 6 -28 3 0 6 -10 7 -22 2 -63 8 -98 17 -98 6 0 5 -5 -2 -12 -8 -8 -8 -17
-1 -31 8 -15 8 -18 -1 -12 -9 6 -9 3 -2 -11 6 -11 11 -39 13 -64 2 -25 8 -48
14 -52 6 -5 6 -8 -2 -8 -7 0 -10 -6 -8 -12 5 -13 13 -67 19 -128 2 -19 4 -35
6 -35 1 0 2 -18 3 -40 2 -22 6 -46 10 -52 5 -8 3 -13 -5 -13 -9 0 -9 -3 -2 -8
6 -4 10 -19 9 -34 -1 -16 1 -28 5 -28 3 0 6 -22 6 -50 -1 -27 2 -50 7 -50 4 0
6 -4 2 -9 -3 -5 -1 -12 5 -16 6 -4 7 -12 3 -18 -10 -17 -11 -47 -1 -53 4 -3 8
-16 8 -29 0 -13 5 -27 12 -31 6 -4 8 -3 5 3 -4 6 0 16 8 23 9 8 12 17 7 24 -5
6 -3 22 4 36 8 14 14 21 14 15 0 -5 5 -3 10 6 7 12 24 15 75 13 43 -1 63 1 58
9 -4 6 -1 7 8 1 20 -12 389 -12 389 1 0 6 3 6 8 0 9 -13 123 -15 115 -2 -4 6
-1 7 8 1 18 -11 89 -13 110 -3 9 5 20 5 24 1 11 -11 54 -9 52 3 -1 5 4 9 12 7
8 -2 11 3 8 13 -4 8 -3 15 1 15 10 0 33 61 26 71 -3 5 0 9 7 9 6 0 9 8 6 20
-3 11 -1 18 4 14 5 -3 10 1 10 8 1 7 3 24 4 38 1 14 5 33 10 42 4 10 8 36 8
58 1 22 4 40 7 40 9 0 6 164 -3 178 -5 7 -4 12 3 12 7 0 9 8 4 23 -4 12 -8 37
-9 55 -2 18 -8 39 -15 47 -7 8 -10 15 -6 15 3 0 1 12 -5 28 -6 15 -13 36 -15
47 -2 11 -8 21 -14 23 -6 2 -8 8 -4 13 3 5 0 9 -6 9 -7 0 -10 7 -6 15 3 8 1
15 -4 15 -6 0 -10 6 -10 13 0 8 -9 22 -20 32 -10 9 -18 21 -17 25 1 4 -8 17
-21 28 -13 11 -23 23 -23 26 3 19 0 29 -5 23 -4 -3 -26 14 -49 38 -23 25 -47
45 -53 45 -7 0 -12 4 -12 9 0 6 -18 20 -40 32 -22 13 -40 26 -40 31 0 4 -9 8
-20 8 -11 0 -20 5 -20 10 0 6 -9 10 -20 10 -11 0 -20 4 -20 9 0 8 -56 25 -72
22 -5 0 -8 4 -8 10 0 6 -7 8 -17 5 -9 -4 -19 -2 -22 3 -9 15 -231 34 -256 21
-5 -2 -23 -5 -40 -6 -16 -1 -31 -3 -32 -4 -2 -1 -12 -4 -23 -5 -11 -1 -23 -4
-27 -5 -5 -1 -11 -2 -15 -1 -5 0 -8 -4 -8 -9 0 -5 -3 -9 -7 -8 -14 4 -83 -23
-83 -32 0 -5 -7 -7 -15 -4 -8 4 -17 -1 -21 -10 -3 -9 -10 -16 -16 -16 -5 0 -6
5 -3 11 4 6 -2 5 -13 -2 -12 -7 -18 -17 -16 -21 3 -4 -3 -8 -13 -8 -21 -1 -55
-24 -47 -33 3 -3 -5 -8 -18 -12 -13 -4 -32 -18 -44 -31 -12 -13 -25 -20 -29
-16 -5 4 -5 2 -1 -5 3 -6 -2 -18 -12 -25 -10 -7 -27 -25 -36 -40 -16 -25 -66
-42 -51 -18 3 6 1 10 -5 10 -6 0 -18 7 -26 15 -9 8 -13 15 -9 15 3 0 0 6 -7
14 -7 8 -16 12 -20 9 -5 -2 -8 1 -8 7 0 15 -25 40 -40 40 -6 0 -8 5 -5 10 3 6
-4 10 -16 10 -12 0 -19 3 -16 7 7 7 -51 53 -67 53 -5 0 -17 7 -26 15 -10 9
-28 18 -40 20 -13 3 -26 9 -30 15 -3 5 -15 11 -25 13 -11 2 -31 9 -45 14 -14
6 -31 8 -37 6 -7 -3 -13 0 -13 6 0 6 -12 11 -26 11 -14 0 -35 5 -46 11 -15 8
-19 8 -14 0 8 -13 0 -13 -29 -2 -11 5 -25 4 -32 -1 -8 -6 -13 -6 -13 -1 0 5
-22 9 -50 8 -27 0 -50 -3 -50 -8z"/>
<path d="M3490 13573 c0 -9 -20 -13 -77 -16 -17 -1 -29 -5 -27 -9 3 -5 -3 -8
-13 -8 -10 0 -42 -9 -70 -19 -29 -10 -55 -16 -59 -12 -4 3 -4 1 -1 -5 3 -6
-11 -18 -33 -28 -22 -10 -40 -22 -40 -27 0 -5 -7 -9 -15 -9 -8 0 -19 -9 -25
-20 -6 -11 -15 -18 -20 -15 -5 3 -12 -4 -15 -16 -4 -11 -9 -18 -12 -15 -3 3
-15 -11 -25 -31 -11 -20 -26 -43 -34 -50 -8 -8 -12 -18 -9 -23 3 -5 1 -10 -5
-12 -5 -1 -11 -13 -13 -26 -2 -13 -10 -28 -18 -33 -11 -7 -12 -9 0 -9 9 0 10
-4 4 -12 -5 -7 -10 -26 -12 -43 -2 -16 -8 -33 -13 -36 -7 -4 -6 -9 1 -14 9 -5
9 -10 1 -20 -8 -9 -8 -15 0 -20 6 -3 8 -10 5 -15 -3 -4 2 -13 9 -19 10 -9 16
-9 21 -1 4 6 12 7 18 2 14 -10 27 -10 45 1 7 5 12 3 12 -4 0 -9 3 -9 14 0 10
8 16 9 21 1 4 -6 12 -7 24 0 12 6 22 5 29 -2 9 -9 12 -9 12 -1 0 8 9 9 28 3
16 -4 36 -4 45 2 11 6 17 5 17 -1 0 -10 25 -9 36 2 4 4 13 2 21 -4 7 -6 13 -7
13 -2 0 11 70 10 88 -1 8 -5 12 0 12 13 0 12 5 21 10 21 6 0 10 6 10 14 0 8 9
21 20 29 11 8 17 17 13 20 -3 4 3 7 15 7 12 0 22 5 22 11 0 5 4 7 10 4 5 -3
18 -1 28 4 13 7 23 6 32 -2 8 -8 11 -8 7 -1 -5 8 5 11 28 11 19 -1 35 -4 35
-7 0 -3 11 -6 25 -6 28 -2 97 -42 91 -53 -3 -4 4 -13 14 -21 10 -8 17 -17 14
-22 -3 -4 0 -8 5 -8 6 0 11 -5 11 -11 0 -5 -4 -8 -9 -5 -5 3 -3 -11 4 -32 8
-20 9 -38 5 -40 -5 -2 -6 -10 -3 -19 3 -8 0 -19 -8 -24 -11 -7 -11 -9 -1 -9
10 0 9 -4 -2 -16 -9 -8 -14 -20 -11 -25 4 -5 1 -9 -4 -9 -16 0 -51 -37 -43
-45 4 -4 2 -6 -3 -5 -6 1 -13 1 -17 0 -5 -1 -12 -4 -18 -5 -5 -1 -11 -3 -12
-5 -9 -6 -53 -11 -125 -12 -46 -1 -83 -6 -83 -10 0 -10 1 -5 -9 -50 -6 -25 -5
-39 3 -42 7 -3 7 -5 -2 -5 -9 -1 -10 -6 -2 -20 7 -14 6 -21 -3 -24 -7 -4 -8
-6 -1 -6 11 -1 10 -49 -1 -78 -2 -7 0 -13 6 -13 6 0 8 -4 5 -9 -3 -5 1 -12 10
-15 10 -4 13 -2 8 7 -6 9 -4 9 7 1 16 -12 58 -12 78 0 7 5 16 4 20 -1 5 -8 89
-11 116 -3 6 1 12 1 15 0 18 -7 71 -7 76 1 3 5 10 6 16 3 15 -10 68 -13 68 -4
0 8 31 7 46 -2 12 -8 34 -6 52 5 6 5 12 4 12 0 0 -5 29 -9 65 -8 36 0 65 4 65
8 0 5 5 5 12 1 7 -5 29 -8 50 -9 27 -1 35 2 28 10 -6 7 -7 15 -3 18 3 4 -1 7
-10 7 -9 0 -17 5 -17 10 0 6 -5 10 -11 10 -18 0 -46 33 -31 38 6 2 12 10 12
17 0 8 5 17 12 21 7 5 8 3 3 -6 -5 -9 -4 -11 3 -6 7 4 12 12 12 17 0 5 11 22
25 37 14 15 25 35 25 45 0 10 5 15 10 12 6 -3 10 3 10 14 0 11 4 22 9 25 8 5
34 93 31 106 -1 3 3 18 9 33 8 20 8 26 0 21 -8 -4 -8 -1 -1 13 7 11 7 25 1 35
-6 11 -6 19 1 23 7 4 6 13 -1 27 -9 16 -8 19 2 13 7 -5 10 -4 6 2 -4 6 -9 28
-13 49 -3 22 -12 51 -20 66 -8 16 -12 28 -8 28 4 0 1 7 -6 15 -6 8 -9 19 -5
25 3 5 3 10 -2 10 -4 0 -24 27 -42 60 -19 33 -41 60 -48 60 -7 0 -12 3 -12 8
3 16 -1 35 -7 30 -3 -3 -18 6 -33 20 -46 45 -84 72 -123 89 -21 9 -38 21 -38
26 0 4 -4 5 -10 2 -5 -3 -22 2 -37 12 -17 11 -24 13 -19 4 6 -8 -1 -7 -18 4
-15 10 -29 15 -33 11 -3 -3 -11 -2 -17 4 -7 5 -31 10 -54 11 -23 2 -42 7 -42
11 0 11 -23 6 -32 -7 -5 -6 -8 -6 -8 1 0 15 -162 15 -172 0 -4 -6 -12 -5 -22
3 -9 8 -16 9 -16 4z"/>
<path d="M5670 13573 c0 -5 -22 -9 -50 -9 -27 1 -50 -2 -50 -7 0 -4 -5 -5 -10
-2 -6 3 -13 -1 -16 -9 -3 -9 -11 -13 -17 -9 -5 3 -7 1 -3 -5 3 -6 2 -13 -4
-17 -6 -4 -8 -10 -6 -14 3 -4 -2 -17 -12 -27 -9 -10 -18 -28 -20 -39 -2 -11
-10 -30 -18 -42 -8 -13 -11 -23 -7 -23 5 0 0 -5 -11 -11 -15 -9 -16 -13 -5
-20 11 -7 11 -9 1 -9 -7 0 -10 -4 -7 -10 3 -5 1 -10 -4 -10 -6 0 -10 -3 -9 -7
3 -11 -34 -87 -46 -95 -7 -5 -6 -8 3 -8 11 0 11 -4 -2 -18 -10 -10 -17 -26
-17 -35 0 -9 -6 -17 -12 -17 -10 0 -10 -2 0 -9 11 -7 11 -9 -2 -14 -9 -4 -15
-10 -14 -14 0 -4 -9 -30 -21 -58 -13 -27 -30 -66 -38 -85 -9 -19 -17 -39 -17
-43 -1 -4 -5 -11 -11 -15 -5 -4 -10 -11 -10 -17 0 -20 -38 -105 -47 -105 -5 0
-7 -4 -4 -9 3 -4 -8 -37 -25 -72 -17 -35 -32 -74 -33 -87 -2 -13 -9 -27 -16
-32 -7 -4 -10 -12 -6 -18 3 -6 1 -12 -6 -14 -11 -4 -20 -47 -9 -46 3 0 8 -1
11 -2 21 -8 40 -6 40 3 0 7 5 5 10 -3 9 -13 10 -13 10 0 0 9 3 11 8 5 4 -5 16
-10 27 -10 11 0 23 5 27 10 5 6 8 6 8 -2 0 -6 9 -11 20 -10 11 1 20 5 20 9 0
5 9 4 20 -2 15 -8 20 -8 20 2 0 8 3 9 8 3 8 -11 102 -15 102 -5 0 4 7 7 15 7
8 0 15 -3 15 -7 0 -3 27 -6 60 -5 33 0 60 4 60 8 0 5 4 6 8 3 8 -5 38 62 34
77 -1 4 4 10 12 13 8 3 12 12 9 20 -3 8 0 14 7 14 6 0 8 5 5 10 -3 6 -2 10 3
10 10 0 26 -29 24 -42 -1 -5 3 -8 8 -8 6 0 10 -12 10 -26 0 -14 4 -23 10 -19
6 3 10 -5 10 -18 0 -35 52 -54 92 -35 9 4 19 4 22 -1 5 -7 74 -8 84 -1 3 3 41
3 45 0 8 -7 64 -4 75 4 8 6 16 6 20 0 8 -11 52 -12 69 -1 6 4 14 3 18 -2 4 -7
15 -7 30 -1 14 5 25 6 25 1 0 -5 11 -8 24 -7 18 1 23 6 20 20 -7 35 -49 136
-57 136 -5 0 -5 5 -2 10 3 6 2 10 -3 10 -6 0 -8 10 -4 22 3 14 2 19 -6 14 -11
-6 -16 6 -13 27 0 4 -4 7 -10 7 -6 0 -9 7 -5 15 3 8 2 15 -3 15 -7 0 -18 22
-25 51 -4 19 -42 89 -48 89 -4 0 -5 6 -2 13 3 8 -2 20 -11 27 -8 7 -15 20 -15
29 0 9 -5 22 -12 29 -7 7 -8 12 -3 12 5 0 0 7 -11 16 -10 8 -13 13 -7 9 9 -4
11 -1 7 9 -3 9 -10 16 -15 16 -5 0 -8 3 -7 8 3 16 -15 62 -25 62 -6 0 -7 3 -4
7 4 3 2 12 -4 20 -6 7 -8 13 -5 13 4 0 0 7 -8 16 -9 8 -14 20 -11 25 4 5 1 9
-4 9 -6 0 -11 9 -11 19 0 11 -4 23 -10 26 -5 3 -10 15 -10 26 0 10 -5 19 -12
19 -6 0 -8 3 -5 7 4 3 -1 15 -10 26 -10 11 -13 17 -6 14 8 -5 8 -1 0 18 -7 14
-16 25 -20 25 -5 0 -5 5 -2 10 3 6 0 13 -8 16 -9 3 -14 16 -12 30 1 13 -2 24
-7 24 -5 0 -6 5 -3 10 4 6 1 9 -5 8 -7 -2 -14 5 -15 16 -4 22 -45 63 -45 44 0
-8 -3 -9 -8 -3 -4 6 -14 10 -22 10 -8 -1 -21 3 -27 8 -8 6 -13 6 -13 0z"/>
<path d="M12500 13573 c0 -5 -16 -9 -35 -8 -19 1 -35 -2 -35 -6 0 -5 -7 -6
-15 -3 -8 4 -22 1 -29 -5 -11 -9 -15 -9 -19 1 -4 10 -7 10 -15 -1 -6 -8 -17
-11 -26 -8 -9 4 -16 1 -16 -5 0 -6 -3 -8 -7 -5 -3 4 -12 2 -20 -4 -7 -6 -13
-8 -13 -4 0 4 -12 0 -26 -10 -15 -9 -23 -12 -20 -6 4 6 -13 2 -38 -8 -24 -11
-47 -17 -50 -14 -3 4 -6 2 -6 -4 0 -5 -19 -18 -42 -29 -24 -10 -46 -23 -49
-28 -4 -4 -12 -5 -18 -2 -6 4 -11 3 -11 -3 0 -5 -21 -23 -47 -39 -62 -38 -94
-67 -86 -76 4 -4 -1 -4 -11 0 -11 4 -17 3 -14 -2 2 -5 -6 -19 -19 -31 -13 -12
-23 -19 -23 -15 0 4 -8 -5 -18 -21 -10 -15 -22 -24 -26 -20 -4 5 -7 4 -6 -2 5
-21 0 -36 -10 -30 -5 3 -10 1 -10 -5 0 -6 -11 -23 -24 -37 -13 -14 -30 -37
-37 -52 -7 -14 -22 -36 -33 -48 -12 -14 -15 -23 -7 -23 7 0 3 -9 -8 -22 -11
-11 -18 -25 -15 -30 3 -4 0 -8 -5 -8 -6 0 -10 -3 -9 -7 1 -9 -9 -40 -23 -66
-5 -10 -7 -22 -4 -27 3 -5 1 -11 -5 -15 -6 -4 -8 -10 -5 -15 3 -5 1 -11 -5
-15 -6 -4 -8 -11 -5 -16 4 -5 3 -9 -2 -9 -4 0 -9 -12 -10 -28 -3 -25 -9 -61
-13 -72 -1 -3 -2 -9 -1 -13 1 -4 -3 -17 -9 -27 -8 -14 -8 -20 0 -20 6 0 8 -5
4 -12 -12 -19 -12 -48 0 -48 6 0 5 -4 -3 -9 -10 -7 -11 -13 -1 -31 8 -15 8
-20 1 -16 -15 10 -14 -3 2 -17 12 -12 137 -18 137 -7 0 4 7 7 15 7 8 0 15 -3
15 -7 0 -9 93 -6 108 4 6 4 12 2 12 -3 0 -13 22 -10 32 4 5 7 8 6 8 -1 0 -9
101 -12 120 -4 3 1 10 1 15 0 34 -7 55 -6 55 4 0 6 4 5 9 -3 7 -11 11 -4 17
25 4 21 8 48 8 59 1 11 5 26 10 34 7 11 6 12 -5 6 -11 -7 -12 -6 -2 6 7 9 14
24 16 35 1 10 6 25 10 32 5 6 5 12 0 12 -4 0 -1 5 7 10 13 9 13 10 0 10 -12 1
-11 3 3 11 9 6 15 14 12 20 -4 5 -2 9 2 9 5 0 14 12 21 28 23 50 37 72 44 72
5 0 8 7 8 17 0 9 3 14 6 10 8 -8 34 18 34 33 0 6 4 9 9 6 5 -3 11 1 15 9 3 8
13 15 21 15 9 0 14 4 11 9 -4 5 14 17 39 27 25 9 45 20 45 24 0 4 6 7 13 8 6
0 23 3 37 7 14 4 31 7 38 7 6 1 12 4 12 8 0 4 12 5 26 2 21 -4 25 -2 19 9 -6
11 -5 12 5 2 10 -9 17 -10 27 -2 7 7 13 7 13 2 0 -5 9 -9 20 -9 11 0 20 5 20
10 0 6 5 5 12 -2 8 -8 17 -8 31 -1 11 6 17 7 14 2 -4 -6 9 -10 27 -11 18 -1
45 -6 59 -11 15 -6 27 -8 27 -5 0 4 6 1 13 -5 8 -6 17 -8 20 -4 4 3 7 1 7 -5
0 -7 6 -12 13 -12 18 0 67 -24 67 -32 0 -5 7 -8 16 -8 9 0 12 -5 8 -12 -5 -8
-2 -9 9 -5 11 4 17 1 17 -9 0 -8 5 -12 10 -9 6 3 10 1 10 -5 0 -5 14 -24 30
-42 17 -17 30 -35 30 -40 0 -5 4 -7 8 -4 5 3 9 -1 10 -9 1 -8 3 -22 4 -30 1
-8 5 -12 10 -9 4 3 8 -2 8 -11 0 -9 7 -26 15 -39 15 -22 26 -55 27 -83 1 -7 4
-13 8 -13 7 0 12 -43 13 -107 0 -21 5 -33 14 -33 7 0 13 -4 13 -9 0 -9 45 -5
61 5 4 2 10 1 13 -4 6 -10 68 -8 84 2 7 4 12 4 12 -1 0 -4 29 -8 65 -8 36 0
65 3 65 8 0 4 8 4 18 -1 19 -10 78 -9 88 1 4 4 13 2 21 -4 10 -9 13 -8 13 2 0
9 3 10 8 4 11 -16 33 -17 50 -3 13 11 15 11 7 -2 -6 -12 -5 -13 5 -3 17 16 23
76 8 67 -7 -5 -8 -2 -2 7 11 17 13 59 2 59 -4 0 -3 11 2 24 5 13 5 27 0 32 -5
5 -11 29 -15 54 -4 24 -9 48 -11 52 -3 4 -7 17 -10 28 -2 11 -6 29 -9 41 -2
12 -9 27 -16 35 -6 8 -9 14 -6 14 3 0 1 14 -4 30 -6 17 -15 30 -21 30 -5 0 -6
5 -3 10 3 6 -1 17 -9 26 -9 9 -14 19 -11 23 2 5 -4 17 -15 28 -10 12 -16 24
-13 27 4 3 1 6 -5 6 -6 0 -14 9 -17 20 -4 11 -11 18 -16 15 -5 -3 -6 1 -3 9 4
9 -1 18 -10 22 -9 3 -16 10 -16 16 0 5 -16 26 -35 46 -19 20 -35 40 -35 45 0
4 -7 7 -15 7 -8 0 -15 5 -15 10 0 6 -9 19 -20 30 -11 11 -20 17 -20 14 0 -4
-12 5 -26 20 -15 14 -31 26 -36 26 -5 0 -6 5 -2 12 4 6 3 9 -2 5 -13 -7 -86
38 -76 47 4 4 2 7 -3 6 -17 -3 -55 12 -55 22 0 5 -4 7 -9 3 -5 -3 -15 0 -23 7
-7 7 -22 15 -33 16 -11 2 -23 9 -26 14 -4 6 -11 8 -17 4 -6 -3 -14 -1 -17 5
-4 5 -13 8 -20 5 -8 -3 -25 4 -39 15 -16 12 -34 18 -50 15 -15 -3 -26 0 -26 5
0 5 -3 8 -7 8 -5 -1 -10 -1 -13 1 -6 2 -79 12 -105 14 -11 0 -23 6 -27 11 -5
6 -8 5 -8 -3 0 -8 -5 -10 -12 -5 -18 11 -158 12 -164 1 -3 -5 -12 -4 -20 3 -8
6 -14 7 -14 2z"/>
<path d="M17066 13571 c-3 -5 -40 -8 -81 -7 -60 2 -78 -1 -85 -13 -8 -14 -9
-14 -10 -1 0 9 -6 5 -14 -10 -8 -14 -13 -27 -11 -31 2 -3 -4 -11 -15 -19 -10
-7 -16 -19 -13 -26 3 -8 -2 -16 -10 -20 -9 -3 -13 -12 -10 -20 3 -8 -1 -14 -8
-14 -7 0 -10 -3 -6 -6 3 -4 -1 -21 -10 -38 -10 -17 -16 -34 -15 -38 1 -5 -2
-8 -7 -8 -8 0 -23 -37 -25 -63 -1 -4 -7 -11 -14 -16 -8 -5 -13 -11 -13 -15 4
-26 0 -36 -11 -30 -7 4 -10 4 -6 -1 4 -4 2 -15 -5 -23 -10 -13 -9 -15 3 -8 8
4 6 0 -4 -8 -11 -9 -16 -16 -12 -16 5 0 3 -7 -4 -15 -6 -8 -9 -18 -6 -24 3 -5
-1 -12 -10 -15 -9 -4 -14 -13 -10 -21 3 -8 2 -15 -3 -15 -7 0 -35 -54 -36 -70
0 -3 -5 -12 -10 -20 -5 -8 -10 -21 -12 -29 -1 -8 -9 -18 -18 -23 -8 -5 -13
-14 -9 -19 3 -5 0 -16 -6 -24 -6 -8 -8 -20 -4 -26 4 -7 3 -9 -3 -6 -12 8 -26
-20 -17 -34 3 -5 1 -9 -4 -9 -5 0 -17 -20 -28 -45 -10 -25 -21 -45 -25 -45 -4
0 -6 -8 -5 -17 2 -10 -2 -21 -8 -25 -6 -4 -11 -11 -12 -15 0 -4 -9 -26 -19
-48 -10 -22 -17 -43 -17 -47 1 -5 -3 -8 -9 -8 -6 0 -9 -6 -6 -14 3 -8 1 -16
-5 -18 -5 -2 -2 -10 8 -18 16 -13 17 -13 9 0 -7 12 -6 13 6 4 17 -13 49 -14
49 -2 0 5 10 4 21 -3 16 -8 20 -8 14 1 -6 9 -2 9 14 1 16 -9 21 -9 21 1 0 10
2 10 9 0 9 -14 32 -13 44 3 4 6 10 5 16 -3 11 -19 15 -19 34 -4 10 9 17 9 22
3 7 -12 32 -10 53 2 6 5 12 4 12 -1 0 -11 111 -9 130 3 8 5 11 4 7 -3 -5 -6 0
-8 13 -5 11 3 20 10 20 15 0 5 6 6 13 2 9 -6 9 -4 -1 8 -11 14 -10 18 6 30 10
7 18 21 16 31 -1 9 2 15 7 11 5 -3 9 2 9 11 0 23 43 110 48 97 2 -7 9 -9 14
-6 7 5 8 2 3 -6 -4 -7 -2 -16 6 -21 12 -7 12 -9 0 -9 -11 0 -9 -4 5 -14 10 -8
16 -18 12 -21 -4 -4 0 -14 8 -22 8 -8 12 -19 9 -24 -4 -5 -2 -9 4 -9 10 0 27
-38 23 -52 -1 -5 5 -8 13 -8 8 0 15 -3 15 -8 0 -9 111 -8 127 1 5 3 13 3 17
-1 9 -8 166 -10 166 -1 0 3 10 5 23 3 12 -1 22 -3 22 -4 0 -2 10 -4 23 -5 12
-1 22 2 22 7 0 5 8 4 18 -1 13 -7 23 -6 32 2 9 8 11 8 6 0 -4 -7 1 -9 13 -6
22 6 21 19 -5 78 -10 22 -17 43 -16 48 1 4 -3 7 -9 7 -5 0 -8 4 -5 9 4 5 2 11
-4 13 -5 1 -11 14 -13 27 -2 13 -11 30 -21 36 -11 9 -13 15 -7 20 8 4 7 11 -1
20 -24 26 -33 41 -36 55 -4 25 -37 90 -44 90 -4 0 -5 7 -2 15 4 8 1 15 -6 15
-6 0 -10 6 -8 12 3 7 -1 19 -9 26 -7 7 -16 25 -20 40 -3 15 -9 29 -12 32 -12
10 -31 50 -31 65 0 8 -4 15 -9 15 -5 0 -15 20 -22 45 -7 25 -17 45 -22 45 -5
0 -6 7 -3 16 4 10 2 13 -6 8 -8 -5 -9 -2 -5 10 4 10 1 19 -7 22 -8 3 -13 14
-11 24 2 10 -4 21 -12 24 -9 4 -13 9 -10 12 3 3 -3 21 -14 40 -10 19 -19 41
-19 49 0 8 -4 15 -10 15 -5 0 -10 9 -10 20 0 11 -4 20 -10 20 -5 0 -10 7 -10
15 0 8 -5 15 -11 15 -5 0 -7 4 -4 10 9 14 -27 59 -48 60 -10 0 -15 5 -12 10 3
6 4 10 1 10 -3 0 -7 -4 -10 -9z"/>
<path d="M9610 13544 c0 -6 -12 -10 -27 -8 -15 1 -32 -1 -38 -6 -8 -6 -11
-104 -10 -302 0 -187 -3 -296 -10 -300 -7 -5 -7 -8 0 -8 6 0 10 -75 9 -207 -1
-115 1 -213 3 -218 5 -14 116 -13 125 0 5 6 8 5 8 -2 0 -7 5 -13 11 -13 5 0 7
5 3 11 -4 8 -1 8 12 2 17 -8 35 -10 49 -3 6 3 44 3 48 0 8 -7 107 -4 107 3 0
6 5 6 13 0 14 -11 57 -11 75 0 6 5 18 5 25 0 19 -12 37 -12 37 -1 0 6 6 8 13
5 16 -6 18 54 2 65 -6 5 -6 8 1 8 7 0 9 11 6 25 -3 17 0 25 9 25 11 0 11 2 0
9 -14 9 -24 51 -12 51 9 0 5 66 -4 81 -5 7 -4 10 1 6 10 -6 10 166 -1 182 -3
6 -2 11 2 11 5 0 7 20 6 44 -2 37 1 46 17 51 11 3 24 3 30 0 5 -3 10 -1 10 6
0 8 5 7 17 -2 13 -11 17 -11 21 -1 3 10 7 10 18 1 11 -9 14 -8 14 2 0 9 3 10
11 2 6 -6 23 -8 45 -3 19 4 34 5 34 1 0 -11 64 -7 72 4 5 7 8 7 8 0 0 -6 21
-10 50 -9 28 1 53 -2 56 -7 3 -5 11 -6 17 -2 18 11 37 12 37 2 0 -5 9 -9 20
-9 11 0 20 -5 20 -12 0 -6 3 -9 6 -6 7 8 54 -36 54 -51 0 -6 4 -11 9 -11 10 0
27 -39 23 -52 -1 -5 3 -8 9 -8 6 0 9 -7 5 -15 -3 -8 -2 -15 2 -15 23 0 20
-186 -4 -244 -6 -15 -4 -17 7 -11 8 4 4 -2 -8 -14 -13 -12 -23 -28 -23 -36 0
-8 -9 -23 -20 -33 -27 -25 -17 -50 19 -47 16 1 34 5 40 9 6 4 11 2 11 -4 0 -7
6 -8 19 0 11 5 22 6 25 1 5 -7 81 -8 111 -1 6 1 12 1 15 0 17 -6 52 -5 56 2 3
4 11 5 17 1 17 -10 47 -11 47 -1 0 5 6 6 13 1 17 -11 58 -12 79 -1 10 5 19 4
23 -2 10 -17 91 5 99 26 4 9 2 12 -5 8 -7 -4 -7 1 1 16 6 12 9 28 6 36 -4 10
-2 12 5 8 7 -4 10 -1 7 7 -3 8 -1 22 4 32 6 11 5 17 -3 17 -7 0 -8 4 -2 13 11
14 11 27 -1 46 -6 10 -5 12 2 7 8 -5 11 14 9 64 -1 38 -4 70 -7 70 -3 0 -6 15
-7 33 -2 44 -9 82 -17 95 -4 7 -1 12 6 12 9 0 9 3 2 8 -11 8 -28 43 -26 54 1
4 -5 19 -13 34 -8 15 -12 31 -9 36 3 5 0 7 -7 6 -7 -2 -13 6 -13 17 0 11 -6
24 -13 28 -7 4 -13 15 -13 22 0 8 -4 15 -10 15 -5 0 -10 7 -10 15 0 8 -4 15
-10 15 -5 0 -10 5 -10 11 0 7 -10 22 -22 33 -13 12 -38 39 -55 60 -18 21 -33
35 -33 30 0 -4 -8 3 -19 14 -10 12 -21 19 -25 15 -3 -3 -6 1 -6 11 0 9 -4 15
-9 11 -5 -3 -12 -1 -16 5 -4 6 -11 8 -16 5 -5 -4 -9 -2 -9 3 0 8 -60 43 -82
48 -5 1 -11 3 -15 4 -5 1 -11 2 -15 1 -5 0 -8 4 -8 9 0 6 -11 10 -25 10 -14 0
-25 4 -25 9 0 5 -10 9 -22 9 -39 1 -72 7 -85 15 -8 5 -13 3 -13 -5 0 -9 -3 -9
-8 -2 -4 6 -31 10 -60 10 -28 -1 -52 1 -52 4 0 3 -27 5 -60 5 -33 0 -60 -2
-60 -5 0 -3 -36 -3 -80 0 -44 3 -80 1 -80 -3 0 -4 -9 -3 -20 3 -13 7 -20 7
-20 1 0 -6 -7 -8 -17 -4 -19 8 -81 8 -88 1 -3 -3 -25 -2 -50 2 -25 4 -45 4
-45 1 0 -10 -185 -6 -192 4 -5 6 -8 6 -8 -2 0 -13 -18 -12 -39 1 -9 6 -12 5
-8 -1 9 -14 -55 -12 -65 2 -5 6 -8 6 -8 -1z"/>
<path d="M14241 13545 c-1 -6 -29 -10 -63 -10 -45 0 -62 -4 -60 -12 1 -7 -4
-13 -10 -13 -9 0 -8 -4 2 -10 8 -5 10 -10 5 -10 -7 0 -9 -15 -7 -36 3 -28 1
-35 -8 -29 -10 6 -11 4 -4 -6 11 -18 14 -268 2 -275 -4 -3 -5 -11 -1 -17 13
-20 12 -97 0 -97 -8 0 -8 -3 -2 -8 14 -10 15 -135 1 -144 -8 -6 -8 -8 0 -8 13
0 14 -187 2 -206 -4 -6 -4 -14 0 -18 11 -12 9 -90 -2 -98 -7 -5 -6 -8 2 -8 7
0 11 -4 8 -9 -3 -5 3 -20 15 -32 11 -13 17 -17 13 -9 -7 13 -5 13 9 1 14 -11
17 -11 17 0 0 9 3 10 8 3 8 -12 91 -12 110 0 7 4 12 3 12 -2 0 -10 50 -9 68 2
7 4 12 3 12 -2 0 -12 83 -10 92 3 5 6 8 6 8 -1 0 -13 58 -13 78 0 7 4 18 4 25
-1 16 -10 127 -11 127 0 0 4 5 5 12 1 19 -12 68 -12 68 0 0 7 3 8 8 1 9 -13
42 -16 42 -3 0 5 6 6 13 1 16 -11 58 -12 78 -2 9 5 19 5 23 2 12 -12 61 -11
68 1 4 6 8 7 8 1 0 -9 86 -13 115 -5 6 1 12 1 15 0 15 -6 117 -5 132 2 10 5
20 4 24 -3 4 -8 9 -7 15 2 5 8 9 9 9 3 0 -12 49 -12 68 0 7 4 12 3 12 -2 0
-12 53 -10 63 3 4 6 10 5 16 -4 6 -9 11 -10 15 -2 4 6 13 8 19 4 7 -4 6 0 -2
10 -9 11 -10 17 -2 17 6 0 10 4 8 9 -1 5 10 23 26 40 15 17 24 31 20 31 -5 1
2 9 15 20 13 10 25 29 27 42 3 13 9 24 14 26 6 2 7 10 4 19 -4 11 -2 14 5 9 7
-4 10 1 7 14 -2 11 0 20 5 20 5 0 9 8 10 18 1 40 8 91 15 112 4 12 3 20 -1 17
-5 -3 -8 19 -7 49 1 33 -2 54 -8 54 -6 0 -8 7 -5 15 3 9 -1 34 -9 57 -7 23
-12 45 -9 50 3 4 -2 11 -10 14 -9 3 -13 10 -10 15 3 5 1 9 -5 9 -6 0 -8 7 -5
15 4 9 -1 18 -11 21 -9 4 -14 13 -11 20 3 8 1 14 -5 14 -5 0 -14 11 -21 25 -6
13 -15 22 -21 18 -6 -3 -7 -1 -3 5 8 13 -29 54 -39 44 -4 -4 -5 -1 -3 6 2 8
-6 19 -17 25 -11 7 -31 24 -45 38 -27 28 -80 63 -80 54 0 -4 -7 1 -16 9 -8 9
-22 16 -30 16 -8 0 -14 4 -14 10 0 5 -6 7 -14 4 -8 -3 -17 -1 -21 5 -3 6 -15
11 -26 11 -10 0 -19 4 -19 8 0 5 -6 9 -12 10 -7 0 -30 2 -50 3 -21 1 -36 5
-33 8 2 3 -39 6 -91 6 -52 0 -94 3 -94 7 0 4 -13 3 -30 -2 -21 -6 -30 -5 -30
3 0 7 -4 6 -10 -3 -7 -11 -10 -11 -10 -2 0 7 -5 10 -11 6 -10 -6 -98 -6 -247
-1 -29 1 -52 -2 -52 -8 0 -7 -3 -7 -8 0 -8 12 -52 12 -70 1 -6 -4 -12 -4 -12
1 0 4 -21 7 -47 6 -27 -2 -72 -4 -101 -5 -28 -2 -54 2 -56 7 -3 7 -5 7 -5 0z
m562 -499 c-4 -6 0 -5 9 2 18 15 208 14 208 -1 0 -4 4 -6 9 -3 5 3 14 -1 21
-9 7 -8 18 -15 25 -15 6 0 20 -18 30 -40 10 -22 21 -40 24 -40 6 0 6 -94 1
-105 -1 -3 -3 -8 -4 -12 -8 -32 -19 -52 -27 -48 -5 4 -9 1 -9 -4 0 -25 -42
-51 -85 -54 -11 0 -26 -5 -32 -10 -9 -6 -13 -5 -13 2 0 7 -5 9 -12 5 -18 -12
-172 -10 -180 1 -5 7 -11 6 -15 -1 -5 -6 -17 -9 -28 -7 -30 6 -38 6 -57 -2
-11 -4 -18 -3 -18 5 0 6 -4 9 -9 6 -13 -8 -20 31 -16 97 2 38 -1 57 -9 57 -8
0 -8 2 0 8 7 4 12 32 12 62 -1 124 -9 115 109 117 52 0 71 -3 66 -11z"/>
<path d="M19198 13544 c-3 -3 -70 -6 -149 -7 -79 -2 -148 -5 -154 -8 -10 -5
-46 -10 -92 -13 -11 0 -19 -4 -16 -8 2 -5 -5 -9 -16 -9 -29 -2 -33 -3 -57 -17
-12 -6 -24 -8 -28 -5 -3 3 -6 0 -6 -7 0 -7 -3 -11 -6 -7 -3 3 -24 -5 -45 -19
-21 -13 -41 -24 -44 -24 -2 0 -13 -7 -22 -15 -10 -8 -21 -15 -26 -15 -4 0 -19
-12 -33 -27 -15 -16 -31 -26 -38 -25 -6 2 -8 1 -4 -3 3 -4 -9 -23 -29 -43 -19
-21 -40 -49 -45 -64 -5 -16 -14 -25 -19 -22 -5 3 -10 0 -10 -5 -4 -34 -20 -61
-32 -54 -6 3 -7 1 -3 -5 4 -6 1 -22 -6 -34 -7 -13 -13 -26 -14 -30 -1 -5 -3
-10 -4 -13 -1 -3 -4 -9 -5 -15 -1 -5 -3 -11 -5 -12 -2 -4 -11 -41 -12 -55 -1
-7 -4 -13 -7 -13 -4 0 -6 -12 -5 -27 0 -16 -4 -31 -10 -35 -7 -5 -7 -8 2 -8 8
0 10 -5 6 -12 -13 -20 -12 -52 0 -67 8 -11 8 -13 -1 -8 -8 5 -11 -7 -10 -43 1
-27 5 -50 9 -50 4 0 3 -11 -2 -25 -6 -17 -6 -25 1 -25 6 0 10 -10 9 -22 -1
-13 -1 -26 0 -30 1 -5 4 -12 5 -18 1 -5 3 -11 5 -12 2 -4 11 -41 12 -55 1 -7
6 -13 11 -13 6 0 8 -3 4 -6 -12 -12 17 -33 31 -22 8 7 12 6 12 -3 0 -12 2 -12
9 0 6 9 11 10 15 2 5 -7 15 -7 31 -1 15 6 25 6 25 1 0 -13 73 -9 83 4 4 7 10
7 15 0 8 -12 27 -13 38 -3 4 4 13 3 20 -3 9 -7 19 -7 31 0 11 5 25 6 33 1 9
-5 19 -5 27 2 8 6 13 7 13 1 0 -13 53 -11 63 2 4 6 10 5 16 -3 9 -15 20 -15
38 -1 7 6 13 6 17 0 7 -11 25 -9 45 3 7 5 16 5 20 0 9 -13 244 -12 253 1 5 7
8 7 8 0 0 -12 125 -13 136 -2 4 4 13 2 20 -4 8 -7 14 -7 19 1 3 6 11 8 16 4
15 -9 98 -11 93 -2 -3 4 0 8 5 8 6 0 11 -4 11 -8 0 -4 9 -8 20 -8 11 0 20 4
20 9 0 5 6 5 13 -1 8 -7 18 -7 27 -2 8 5 18 6 23 3 15 -9 86 -10 81 -1 -3 4 0
8 5 8 6 0 11 -3 11 -8 0 -11 74 -9 82 3 5 6 8 5 8 -2 0 -9 7 -10 25 -3 14 5
27 5 30 1 6 -10 24 -9 43 2 6 5 12 4 12 -1 0 -15 81 -6 91 9 4 8 3 16 -3 20
-6 4 -6 9 -1 12 7 5 10 261 3 277 -1 3 -1 10 0 15 8 28 5 272 -3 283 -5 7 -6
12 0 12 10 0 10 191 -1 208 -4 7 -3 12 2 12 12 0 9 73 -3 82 -6 5 -5 8 2 8 7
0 10 7 6 15 -3 9 -6 32 -7 53 l-1 37 -56 1 c-31 1 -62 4 -68 8 -6 4 -11 2 -11
-5 0 -8 -4 -8 -15 1 -9 7 -15 8 -15 2 0 -11 -18 -11 -37 1 -8 5 -13 3 -13 -4
0 -8 -4 -8 -15 1 -11 9 -15 9 -15 1 0 -9 -5 -9 -20 -1 -15 8 -20 8 -20 -2 0
-9 -3 -9 -10 2 -5 8 -10 10 -10 5 0 -7 -22 -9 -60 -5 -33 3 -60 3 -60 0 0 -3
-36 -3 -80 0 -44 3 -80 3 -80 0 0 -8 -44 -5 -58 4 -7 4 -12 4 -12 -1 0 -9 -52
-9 -67 0 -6 4 -13 4 -15 1z m-88 -482 c0 6 6 5 15 -2 12 -10 15 -10 15 1 0 11
2 11 10 -1 5 -8 10 -10 10 -4 0 8 11 9 35 4 24 -5 35 -4 35 4 0 6 5 4 10 -4 5
-8 10 -10 10 -5 0 6 17 10 37 10 21 0 41 -4 45 -10 5 -6 8 -5 8 4 0 11 3 11
15 1 10 -9 15 -9 15 -1 0 8 5 8 18 0 14 -9 17 -27 18 -119 0 -70 -3 -107 -9
-103 -6 4 -7 1 -2 -7 12 -19 14 -130 3 -130 -5 0 -3 -10 3 -22 9 -17 9 -23 0
-26 -6 -2 -8 -9 -4 -15 11 -17 11 -77 0 -77 -5 0 -4 -7 3 -15 7 -8 11 -16 9
-16 -2 -1 -78 -3 -169 -4 -107 -1 -168 2 -172 9 -6 8 -8 8 -8 0 0 -12 -49 -13
-67 -1 -6 4 -15 2 -18 -3 -5 -7 -12 -5 -22 7 -8 10 -11 11 -7 3 7 -13 5 -13
-9 -1 -9 7 -17 10 -17 5 0 -5 -4 -4 -8 1 -4 6 -19 16 -34 24 -15 8 -25 18 -22
23 3 4 -2 11 -10 14 -9 3 -16 12 -16 20 0 8 -4 14 -10 14 -5 0 -9 3 -8 8 1 4
-4 21 -11 37 -14 34 -22 175 -10 175 5 0 6 6 3 14 -3 8 0 17 5 21 6 3 9 10 6
15 -3 4 2 13 10 20 8 7 15 20 15 29 0 9 10 23 21 31 12 8 30 23 39 33 10 10
27 19 39 20 11 1 21 5 21 9 0 10 43 6 59 -6 11 -8 13 -8 8 1 -9 15 19 21 61
12 19 -4 32 -3 32 3z"/>
<path d="M8212 12851 c-1 -20 -2 -44 -3 -54 0 -9 -3 -16 -7 -13 -4 2 -7 -18
-7 -45 1 -27 -2 -49 -6 -49 -3 0 -4 -12 -1 -26 3 -16 1 -25 -5 -21 -5 3 -10 0
-10 -8 0 -8 4 -15 9 -15 5 0 4 -10 -3 -21 -6 -12 -9 -32 -6 -45 3 -17 0 -24
-12 -24 -9 0 -12 -3 -6 -8 9 -6 12 -26 6 -34 -2 -2 -4 -19 -6 -38 -2 -19 -6
-51 -9 -70 -5 -33 -16 -116 -20 -150 -1 -9 -6 -22 -11 -29 -6 -10 -4 -12 6 -6
11 7 12 6 3 -6 -7 -8 -15 -41 -19 -74 -12 -101 -20 -150 -25 -150 -1 0 -9 -82
-13 -142 -1 -17 -5 -30 -8 -27 -3 2 -6 -9 -6 -24 0 -15 -3 -36 -8 -46 -7 -15
-5 -17 6 -11 8 5 5 -1 -5 -13 -11 -12 -14 -22 -8 -22 8 0 9 -7 2 -25 -5 -14
-9 -29 -7 -33 3 -11 -29 -52 -36 -45 -4 3 -7 1 -7 -4 0 -13 -17 -11 -48 5 -12
7 -20 17 -17 23 4 5 1 9 -4 9 -6 0 -11 12 -11 26 0 14 -5 35 -11 46 -9 16 -8
19 2 13 7 -5 10 -4 6 2 -7 11 -20 78 -20 103 0 8 -4 21 -10 28 -6 8 -6 12 3
12 10 0 10 3 0 15 -7 8 -10 21 -7 30 4 8 2 17 -4 21 -5 3 -9 13 -8 22 1 10 0
19 -1 22 -2 5 -5 30 -11 83 -2 15 -8 27 -14 27 -5 0 -3 5 5 10 8 5 10 10 5 10
-10 0 -12 11 -16 68 0 9 -3 24 -6 32 -6 15 -9 37 -16 92 -1 15 -6 30 -10 34
-3 4 -2 16 4 27 8 14 8 18 0 13 -7 -5 -11 6 -11 33 0 24 -5 41 -11 41 -8 0 -9
4 0 13 6 8 8 16 5 19 -2 3 -7 18 -10 34 -9 50 -21 61 -29 26 -3 -18 -11 -32
-16 -32 -5 0 -8 -3 -8 -7 1 -5 0 -10 -1 -13 -1 -3 -3 -13 -6 -22 -2 -10 -6
-26 -8 -35 -3 -10 -5 -20 -6 -23 -1 -3 -2 -8 -1 -12 0 -5 -3 -8 -9 -8 -5 0
-10 -6 -10 -14 0 -15 -24 -29 -55 -31 -11 0 -26 -4 -32 -8 -7 -5 -13 -5 -13 0
0 4 -20 8 -44 8 -25 0 -42 -4 -39 -9 4 -5 0 -6 -7 -1 -18 11 -310 13 -332 3
-10 -5 -19 -4 -23 2 -5 8 -11 8 -19 1 -7 -6 -16 -8 -19 -4 -11 11 -137 9 -137
-2 0 -7 -3 -7 -8 0 -8 12 -47 14 -57 3 -4 -4 -13 -4 -20 -2 -19 8 -8 -29 16
-55 11 -12 17 -21 14 -21 -4 0 0 -7 7 -15 29 -32 38 -45 38 -53 0 -5 11 -17
24 -28 14 -10 23 -21 20 -26 -3 -4 0 -8 5 -8 6 0 11 -8 11 -17 0 -9 3 -13 7
-10 3 4 17 -9 30 -28 13 -19 28 -35 33 -35 6 0 10 -7 10 -15 0 -8 7 -15 16
-15 11 0 14 -5 10 -17 -4 -10 -4 -14 0 -11 3 4 41 -29 85 -73 43 -43 83 -79
89 -79 6 0 8 -4 5 -10 -3 -5 -2 -10 3 -10 14 0 52 -36 52 -49 0 -6 7 -11 15
-11 9 0 18 -7 21 -15 4 -8 10 -13 14 -10 5 3 16 -5 24 -17 9 -12 16 -19 16
-15 0 4 8 -1 18 -10 11 -10 17 -21 15 -26 -3 -4 -1 -6 4 -5 11 3 93 -53 93
-64 0 -5 4 -7 8 -4 5 3 15 -4 22 -15 8 -10 19 -19 25 -19 5 0 23 -11 39 -25
16 -13 36 -27 46 -30 10 -3 21 -12 24 -20 3 -8 12 -15 21 -15 8 0 15 -5 15
-11 0 -5 14 -15 30 -20 17 -6 30 -17 30 -25 0 -8 9 -14 20 -14 11 0 20 -4 20
-10 0 -5 3 -9 8 -8 8 3 63 -32 73 -45 3 -5 8 -8 10 -7 2 1 18 -4 34 -11 46
-18 73 -19 79 -2 3 8 10 12 15 8 5 -3 12 -1 16 5 4 6 11 7 17 4 7 -4 8 -2 4 4
-6 11 -3 13 19 12 3 0 15 9 27 20 12 11 28 20 35 20 7 0 13 5 13 12 0 6 3 9 6
5 4 -3 12 -1 20 6 33 30 42 35 48 30 3 -3 8 2 12 11 3 9 12 16 20 16 8 0 14 5
14 11 0 5 5 7 10 4 6 -3 10 1 10 10 0 9 4 14 9 11 4 -3 21 6 37 19 16 14 32
25 35 25 3 0 18 11 33 25 15 14 32 22 38 19 7 -4 8 -2 4 4 -4 7 3 17 18 23 14
7 23 17 19 22 -4 6 0 8 10 4 11 -4 17 -1 17 9 0 8 5 12 10 9 6 -3 10 1 10 10
0 9 4 14 9 10 6 -3 14 3 20 12 6 10 11 14 11 10 0 -4 14 6 30 23 17 17 30 28
30 26 0 -7 49 38 143 128 40 38 71 74 69 80 -2 6 0 8 4 4 10 -11 35 12 27 25
-4 6 -1 7 6 3 8 -5 14 0 18 13 3 11 9 18 14 15 5 -3 9 -2 9 3 0 4 18 27 40 51
22 23 37 42 33 42 -4 0 3 7 15 16 12 8 22 21 22 28 0 8 7 17 16 20 9 4 14 9
11 12 -3 3 10 21 29 41 19 19 32 39 29 43 -3 5 3 15 13 22 23 16 34 44 19 46
-64 7 -137 6 -137 -3 0 -6 -3 -7 -8 0 -11 15 -32 17 -48 4 -8 -6 -14 -7 -14
-2 0 5 -9 9 -20 10 -11 1 -20 -3 -20 -8 0 -6 -5 -7 -12 -3 -18 11 -68 13 -68
2 0 -5 -5 -6 -11 -2 -17 10 -109 12 -109 2 0 -5 -6 -6 -12 -1 -21 12 -38 12
-38 0 0 -8 -3 -8 -8 -2 -10 14 -45 16 -54 2 -5 -7 -8 -8 -8 -2 0 10 -19 10
-113 6 -10 -1 -15 -5 -12 -11 3 -5 1 -10 -6 -10 -7 0 -9 -3 -6 -7 4 -3 2 -12
-4 -20 -6 -7 -9 -13 -5 -13 4 0 0 -13 -9 -30 -9 -16 -13 -30 -9 -30 4 0 1 -7
-6 -15 -7 -8 -9 -15 -5 -15 4 0 2 -7 -5 -15 -6 -8 -9 -19 -5 -25 3 -5 1 -10
-4 -10 -6 0 -11 -8 -11 -18 0 -10 -9 -28 -19 -39 -11 -12 -18 -23 -15 -25 6
-7 -37 -3 -61 5 -18 6 -23 18 -27 65 -1 6 -6 12 -11 12 -5 0 -4 7 3 15 8 9 9
15 2 15 -6 0 -9 10 -7 21 3 12 2 26 -2 32 -3 6 -7 31 -7 56 -1 25 -3 51 -6 56
-3 6 -5 29 -5 53 0 23 -2 42 -5 42 -3 0 -5 19 -5 43 1 23 -4 45 -10 49 -6 5
-5 8 3 8 8 0 10 5 5 13 -8 13 -14 59 -16 139 -1 27 -5 48 -8 48 -3 0 -6 6 -6
13 -1 6 -2 33 -4 59 -1 26 -6 45 -12 41 -5 -3 -4 3 1 14 6 11 7 25 2 33 -5 8
-7 17 -5 20 2 4 -1 7 -8 7 -7 0 -13 -16 -15 -36z"/>
<path d="M3514 12348 c-3 -4 -10 -6 -17 -4 -7 1 -9 1 -4 -1 4 -3 5 -9 2 -13
-3 -5 8 -8 23 -8 16 1 35 -3 42 -7 10 -6 12 -4 6 10 -5 14 -3 15 6 7 16 -12
79 -19 95 -9 6 4 16 0 23 -8 7 -8 16 -12 21 -9 21 13 149 -68 149 -94 0 -5 7
-15 15 -22 8 -7 12 -16 9 -21 -3 -5 0 -9 6 -9 7 0 10 -6 7 -14 -3 -8 -3 -17 1
-21 10 -9 9 -95 0 -89 -4 3 -8 0 -8 -5 0 -6 5 -11 12 -11 9 0 9 -3 0 -12 -7
-7 -12 -20 -12 -30 0 -9 -8 -22 -17 -27 -10 -6 -14 -11 -10 -11 17 0 -77 -80
-95 -80 -10 0 -18 -5 -18 -10 0 -6 -11 -8 -25 -6 -14 3 -25 0 -25 -5 0 -6 -6
-9 -12 -6 -7 2 -25 1 -39 -4 -17 -4 -32 -3 -39 4 -10 9 -14 9 -17 -1 -4 -9 -9
-10 -17 -2 -7 5 -25 11 -40 12 -14 1 -26 6 -26 10 0 4 -5 8 -11 8 -5 0 -27 11
-47 25 -20 14 -33 25 -28 25 5 0 -1 8 -12 19 -12 10 -22 25 -22 32 0 8 -6 23
-13 34 -7 11 -12 30 -11 43 1 12 -3 22 -8 22 -5 0 -7 4 -4 9 3 4 -1 17 -9 27
-9 12 -14 14 -15 6 0 -7 -5 -10 -11 -6 -14 8 -369 11 -369 3 0 -3 -11 -5 -25
-4 -14 2 -26 -2 -26 -8 -4 -35 -4 -127 1 -127 3 0 6 -10 6 -22 3 -52 9 -78 18
-78 5 0 6 -3 3 -7 -4 -3 0 -17 9 -31 9 -13 11 -21 4 -17 -9 5 -8 1 1 -16 7
-13 12 -27 11 -31 -1 -5 3 -8 9 -8 5 0 7 -4 4 -10 -3 -5 -1 -10 5 -10 7 0 10
-6 7 -13 -3 -8 3 -20 13 -27 11 -8 17 -17 14 -22 -3 -4 0 -8 5 -8 6 0 11 -5
11 -11 0 -7 18 -31 40 -55 22 -24 40 -41 40 -38 0 3 11 -5 24 -18 26 -26 87
-63 99 -60 4 1 7 -3 7 -9 0 -5 5 -7 10 -4 6 3 10 1 10 -6 0 -7 3 -10 6 -6 4 3
19 0 34 -8 15 -8 30 -11 34 -8 3 4 6 1 6 -5 0 -7 10 -12 23 -12 13 0 29 -6 36
-12 11 -11 12 -10 6 2 -7 13 -6 13 7 2 8 -7 38 -14 65 -16 28 -2 54 -5 59 -8
5 -3 55 -6 112 -6 80 -2 101 1 96 11 -6 9 -5 9 8 0 8 -7 17 -11 19 -9 2 3 22
7 44 10 57 8 68 10 84 20 11 7 12 6 6 -5 -7 -11 -6 -12 7 -2 8 7 18 10 21 6 4
-3 7 -2 7 4 0 5 7 10 15 11 8 1 22 3 30 4 8 1 15 5 15 10 0 5 4 7 9 3 5 -3 12
-1 16 5 4 6 11 8 16 5 5 -4 9 -1 9 4 0 6 3 10 8 9 15 -5 71 25 65 35 -3 6 -1
7 6 3 6 -4 25 2 41 14 17 12 30 19 30 15 0 -3 14 8 30 25 17 17 30 28 30 24 0
-4 11 5 25 20 14 15 25 35 25 44 0 15 2 15 10 2 8 -13 10 -12 10 3 0 10 7 20
15 23 8 4 15 15 15 25 0 10 3 19 8 19 4 0 13 9 20 21 11 17 11 20 0 14 -7 -3
-5 0 4 8 10 8 15 17 11 21 -4 4 -2 11 5 15 7 4 14 22 15 39 1 18 6 32 11 32 4
0 6 9 3 20 -3 11 -2 20 2 20 4 0 7 10 7 23 0 12 3 37 7 55 4 18 3 31 -1 28 -4
-2 -7 9 -7 25 0 16 2 29 5 29 3 0 6 9 6 20 0 11 -4 20 -8 20 -4 0 -4 7 -1 17
5 12 3 14 -8 8 -11 -7 -12 -6 -3 6 6 8 9 23 7 34 -3 11 -5 28 -6 38 -1 9 -4
17 -7 17 -4 0 -7 7 -7 15 0 27 -36 95 -50 95 -8 0 -11 5 -7 12 5 7 3 8 -7 2
-20 -12 -90 -13 -82 -1 3 6 1 7 -5 3 -22 -13 -52 -15 -52 -3 0 8 -3 8 -9 -2
-6 -9 -10 -10 -16 -2 -5 9 -10 9 -20 1 -9 -8 -15 -8 -20 0 -4 7 -13 7 -27 -1
-15 -8 -22 -8 -28 1 -6 9 -9 9 -13 -1 -4 -10 -6 -10 -6 -1 -1 6 -6 12 -12 12
-5 0 -8 -4 -5 -8 7 -12 -38 -10 -46 2 -5 8 -11 7 -19 -1 -7 -7 -19 -9 -34 -3
-14 5 -27 4 -34 -3 -8 -8 -11 -8 -11 1 0 8 -7 9 -27 1 -20 -7 -28 -6 -35 3 -6
10 -8 10 -8 -1 0 -11 -3 -12 -12 -3 -8 8 -17 8 -32 0 -15 -8 -21 -8 -24 1 -3
9 -7 9 -18 0 -11 -9 -14 -9 -14 0 0 7 -5 9 -12 4 -17 -10 -38 -13 -38 -4 0 4
-9 7 -20 7 -11 0 -20 -3 -20 -6 0 -3 -9 -6 -20 -6 -11 0 -20 3 -20 6 0 8 -91
6 -96 -2z"/>
<path d="M5046 12353 c-4 -4 -12 -9 -17 -9 -5 -1 -14 -2 -20 -3 -5 0 -8 -5 -4
-10 3 -5 -1 -16 -9 -24 -8 -8 -12 -17 -9 -21 4 -3 0 -6 -7 -6 -7 0 -11 -3 -7
-6 3 -4 -1 -21 -11 -38 -9 -17 -17 -35 -18 -41 0 -5 -13 -36 -27 -69 -15 -32
-27 -62 -27 -67 0 -5 -4 -9 -10 -9 -5 0 -9 -3 -9 -7 4 -23 -2 -43 -10 -38 -6
3 -8 -4 -6 -15 2 -11 -2 -26 -9 -33 -7 -7 -12 -20 -10 -30 1 -9 -1 -15 -6 -12
-4 3 -14 -3 -21 -12 -12 -14 -12 -16 1 -8 12 6 12 5 4 -5 -8 -8 -32 -11 -68
-8 -31 1 -56 0 -56 -3 0 -3 -11 -4 -25 -1 -13 2 -37 1 -52 -3 -21 -5 -24 -8
-12 -16 7 -5 9 -9 4 -9 -13 0 -13 -69 -1 -89 6 -9 5 -12 -1 -8 -8 5 -11 -106
-3 -138 1 -5 1 -12 0 -15 -8 -19 -4 -180 5 -180 6 0 7 -3 0 -8 -14 -10 -17
-32 -4 -32 8 0 8 -4 0 -14 -8 -10 -9 -16 -1 -21 6 -3 7 -12 3 -18 -11 -18 -10
-123 2 -133 6 -5 17 -9 25 -9 8 1 23 -2 32 -7 10 -5 18 -3 21 5 4 9 6 8 6 -2
1 -11 4 -11 16 -1 12 10 15 10 15 -1 0 -11 3 -11 11 1 8 11 12 12 16 2 2 -6 9
-9 15 -6 6 4 68 8 137 9 69 1 129 3 132 4 4 0 5 16 4 34 -2 17 1 37 6 44 6 6
6 14 2 16 -5 3 -8 29 -7 59 3 71 3 70 13 64 5 -4 11 0 14 6 3 10 8 9 22 -2 11
-9 16 -10 11 -2 -4 6 -3 12 3 12 5 0 13 -5 16 -10 4 -6 12 -7 18 -3 19 12 36
12 43 2 3 -6 12 -5 21 2 12 10 16 10 24 -2 5 -8 9 -9 9 -3 0 12 79 12 99 0 9
-6 12 -5 7 2 -4 7 1 10 14 9 11 -1 20 -6 20 -12 0 -7 3 -7 8 0 9 14 135 15
144 1 6 -8 8 -8 8 0 0 14 113 14 122 0 5 -8 8 -8 8 0 0 6 22 11 55 11 36 0 52
-4 48 -11 -4 -6 1 -5 10 2 9 8 21 11 27 7 5 -3 10 0 10 7 0 8 3 9 8 3 4 -7 45
-10 100 -9 62 1 92 -2 92 -10 0 -8 3 -8 8 0 9 14 105 14 114 0 5 -8 8 -7 8 2
0 6 8 12 18 12 10 0 24 -6 31 -12 10 -9 12 -9 7 -1 -7 12 30 13 50 1 5 -4 16
-3 24 2 8 5 18 3 27 -5 16 -17 17 -29 1 -19 -7 5 -8 3 -2 -7 12 -20 12 -121 0
-138 -9 -12 -8 -13 3 -6 11 6 13 3 9 -12 -4 -13 2 -27 13 -37 13 -11 19 -12
19 -3 0 8 4 7 10 -3 5 -8 10 -10 10 -5 0 6 48 10 122 10 71 0 126 -4 130 -10
5 -7 8 -7 8 0 0 6 22 9 50 9 28 -1 50 3 50 8 0 5 4 6 10 3 6 -4 8 6 6 24 -2
16 0 35 5 42 4 8 3 16 -3 20 -7 4 -6 14 2 29 8 15 8 20 1 16 -6 -4 -11 -4 -11
-1 0 4 5 16 11 27 9 16 8 19 -3 12 -11 -6 -11 -5 0 8 10 12 10 18 1 23 -8 6
-7 10 2 16 11 7 11 9 1 9 -10 0 -10 5 -2 20 6 11 7 20 2 20 -11 0 -9 51 2 68
4 7 1 12 -6 12 -9 0 -9 3 2 10 8 5 10 10 4 10 -12 0 -12 29 0 48 4 7 2 12 -6
12 -9 0 -9 3 2 10 8 5 10 10 4 10 -12 0 -12 29 0 48 4 7 2 12 -6 12 -9 0 -9 3
2 10 8 5 10 10 5 10 -12 0 -13 40 -1 58 4 7 2 12 -4 12 -7 0 -8 6 -1 19 6 10
7 22 3 26 -4 3 -8 11 -8 16 -1 5 -2 13 -3 18 0 5 -14 8 -31 7 -16 -1 -30 3
-30 8 0 7 -3 8 -8 1 -10 -14 -42 -15 -42 -1 0 6 -5 4 -11 -4 -8 -12 -12 -12
-16 -2 -4 10 -8 10 -19 1 -11 -9 -14 -8 -14 2 0 12 -2 12 -9 1 -7 -11 -11 -11
-22 2 -33 37 -39 47 -41 71 -1 14 -6 25 -11 25 -4 0 -5 5 -2 10 3 6 1 10 -6
10 -7 0 -10 3 -6 6 3 4 -1 13 -9 21 -8 9 -13 22 -10 29 3 7 -3 18 -12 23 -9 6
-13 11 -9 11 4 0 2 10 -5 23 -7 12 -11 25 -10 30 1 4 -3 7 -9 7 -6 0 -9 7 -5
15 3 8 1 15 -4 15 -6 0 -10 7 -10 16 0 9 -8 23 -17 31 -10 8 -12 11 -4 8 8 -5
7 2 -5 20 -10 15 -20 37 -21 47 -5 31 -25 45 -65 43 -24 -2 -35 1 -31 8 4 6 1
7 -7 2 -18 -11 -80 -13 -86 -3 -3 4 -15 3 -26 -3 -16 -9 -23 -8 -29 2 -7 12
-9 11 -9 0 0 -11 -3 -12 -12 -3 -8 8 -17 8 -32 0 -15 -8 -21 -8 -24 1 -3 9 -7
9 -18 0 -11 -9 -14 -9 -14 0 0 8 -5 9 -18 2 -11 -6 -24 -6 -32 -1 -9 5 -19 5
-27 -2 -10 -8 -13 -7 -13 3 0 9 -3 10 -8 4 -8 -12 -52 -15 -52 -4 0 4 -9 5
-20 2 -15 -4 -18 -9 -10 -18 7 -9 8 -15 1 -19 -11 -7 6 -56 18 -56 4 0 8 -12
9 -27 1 -16 7 -29 12 -31 6 -2 10 -12 10 -23 0 -10 5 -19 11 -19 5 0 7 -5 4
-10 -4 -6 0 -22 9 -35 9 -13 16 -31 16 -40 0 -8 4 -15 9 -15 6 0 8 -9 6 -20
-2 -11 1 -20 7 -20 5 0 7 -7 4 -15 -3 -9 1 -18 9 -21 8 -4 12 -10 9 -16 -3 -5
2 -18 12 -29 12 -13 13 -19 4 -19 -10 0 -9 -4 1 -17 13 -15 12 -16 -9 -11 -12
4 -20 2 -17 -2 3 -5 -4 -8 -15 -7 -11 1 -20 6 -20 12 0 6 -3 5 -8 -2 -9 -14
-44 -12 -54 2 -5 7 -8 6 -8 0 0 -14 -113 -15 -122 -1 -5 7 -8 8 -8 1 0 -15
-100 -15 -100 -1 0 8 -3 8 -8 0 -9 -14 -132 -14 -132 0 0 6 -4 5 -9 -2 -4 -8
-12 -14 -16 -14 -4 0 -12 6 -16 14 -5 7 -9 8 -9 2 0 -12 -29 -15 -31 -2 -3 19
-2 34 4 48 13 31 39 106 44 128 3 12 10 22 15 22 5 0 7 4 3 9 -6 11 15 62 30
73 5 4 6 8 1 8 -4 0 -1 12 9 26 11 18 13 24 4 19 -9 -5 -8 -1 2 11 9 10 20 34
24 52 3 17 11 32 16 32 5 0 1 9 -8 20 -11 13 -21 16 -27 10 -14 -14 -29 -13
-20 1 5 8 1 8 -14 0 -14 -7 -23 -8 -27 -1 -4 7 -13 6 -27 -1 -16 -9 -23 -8
-29 2 -5 8 -9 9 -9 3 0 -6 -7 -11 -15 -11 -8 0 -15 3 -15 7 0 4 -7 7 -15 7 -8
0 -12 -5 -8 -10 3 -5 -4 -6 -18 -1 -25 8 -27 8 -71 1 -16 -2 -28 0 -28 4 0 5
-12 4 -27 -2 -19 -7 -28 -6 -33 2 -6 8 -9 7 -13 -2 -4 -10 -6 -10 -6 -2 -1 9
-8 10 -25 3 -16 -6 -26 -5 -28 1 -2 6 -7 7 -12 2z"/>
<path d="M9555 12347 c-20 -10 -21 -18 -20 -194 0 -102 -4 -187 -8 -190 -4 -3
-4 -10 0 -16 5 -7 9 -101 8 -209 0 -126 4 -198 10 -198 7 0 7 -3 0 -8 -11 -8
-14 -72 -4 -72 4 0 9 -9 12 -20 3 -11 13 -20 22 -20 10 0 13 5 9 13 -6 8 -3 8
9 -1 11 -9 48 -14 114 -14 57 0 104 -5 112 -12 11 -8 13 -8 8 1 -5 8 5 11 38
10 25 -1 45 0 45 4 0 3 20 4 45 4 25 -1 45 2 45 6 0 4 9 6 20 4 11 -2 20 1 20
6 0 6 5 7 12 3 8 -5 9 -2 5 9 -4 10 -2 28 3 42 5 14 6 25 1 25 -4 0 -8 7 -8
15 0 8 4 12 7 10 4 -3 6 10 5 28 -2 17 2 38 9 46 8 12 8 13 -1 7 -9 -5 -13 0
-13 14 0 14 4 19 13 13 6 -4 4 6 -7 21 -10 16 -13 25 -7 22 8 -5 10 17 8 73
-1 47 2 83 8 85 6 3 4 5 -3 5 -10 1 -10 6 -2 21 8 15 8 20 -2 20 -10 0 -10 2
1 9 11 7 11 9 0 14 -9 4 -10 6 -2 6 7 1 10 7 7 15 -4 10 1 15 13 15 265 1 435
6 439 13 3 5 12 3 21 -3 9 -8 17 -9 21 -3 7 8 33 14 92 19 15 1 24 7 22 15 -3
11 0 11 12 0 12 -9 16 -9 16 -1 0 7 5 9 10 6 6 -3 10 -2 10 4 0 6 6 8 13 5 8
-3 20 2 27 11 11 13 15 13 21 3 7 -10 9 -10 9 0 0 6 7 12 15 12 8 0 15 5 15
11 0 6 5 9 12 7 6 -2 22 6 36 19 14 13 27 21 30 19 2 -3 19 11 38 29 19 19 34
32 34 29 0 -3 6 1 14 8 8 7 11 17 8 22 -3 5 1 7 9 4 10 -4 19 4 27 21 6 14 22
38 36 52 22 24 42 68 36 79 -2 3 -13 4 -24 2 -18 -2 -19 -1 -6 8 13 10 12 11
-2 6 -10 -3 -25 -9 -33 -12 -8 -3 -15 -1 -15 5 0 7 -8 7 -27 0 -20 -7 -28 -6
-35 3 -6 10 -8 10 -8 -2 0 -13 -1 -13 -10 0 -9 13 -10 13 -10 0 0 -9 -3 -11
-8 -5 -9 13 -35 18 -27 5 3 -5 2 -10 -4 -10 -5 0 -13 5 -16 10 -4 6 -13 7 -23
2 -20 -10 -62 -9 -79 1 -6 4 -14 3 -18 -3 -4 -6 -12 -7 -18 -3 -16 10 -47 11
-41 2 2 -4 -5 -7 -16 -6 -11 1 -20 5 -20 10 0 5 -7 4 -15 -3 -12 -10 -15 -10
-15 1 0 11 -2 11 -10 -1 -7 -11 -12 -12 -21 -3 -9 9 -18 9 -32 1 -15 -7 -22
-7 -28 3 -7 12 -9 12 -9 0 0 -11 -3 -11 -15 -1 -11 9 -15 10 -15 1 0 -8 -8
-10 -22 -5 -13 4 -27 7 -33 6 -61 -7 -75 -7 -75 0 0 5 -10 4 -21 -3 -17 -8
-23 -8 -29 1 -5 8 -13 9 -21 4 -18 -11 -99 -12 -99 -1 0 5 -6 5 -13 -2 -10 -8
-17 -7 -27 2 -10 9 -11 9 -6 0 4 -7 3 -13 -3 -13 -5 0 -12 6 -14 13 -4 9 -6 8
-6 -2 -1 -11 -4 -11 -16 -1 -8 7 -15 8 -15 3 0 -5 -7 -10 -15 -10 -8 0 -15 4
-15 9 0 5 -5 6 -12 2 -17 -11 -78 -12 -84 -2 -3 5 -15 3 -26 -3 -16 -9 -23 -8
-29 2 -7 12 -9 12 -9 0 0 -10 -3 -11 -13 -3 -8 7 -18 7 -27 2 -9 -6 -20 -4
-29 3 -12 9 -13 9 -7 0 4 -7 2 -13 -3 -13 -6 0 -11 5 -11 10 0 6 -5 10 -11 10
-5 0 -8 -3 -6 -7 3 -5 -6 -9 -19 -9 -13 -1 -24 3 -24 10 0 6 -5 4 -10 -4 -5
-8 -10 -10 -10 -4 0 6 -7 11 -15 11 -8 0 -12 -3 -10 -7 2 -4 -9 -7 -25 -6 -17
1 -30 4 -30 8 0 4 -11 3 -25 -2 -17 -7 -25 -6 -25 1 0 8 -4 8 -13 0 -8 -6 -18
-7 -23 -3 -5 5 -18 4 -29 -1z"/>
<path d="M11535 12349 c4 -5 2 -9 -3 -9 -10 0 -9 -37 3 -100 4 -19 8 -44 10
-55 1 -11 10 -39 19 -63 8 -23 16 -46 17 -50 9 -38 89 -204 103 -214 7 -5 7
-8 1 -8 -5 0 -2 -5 8 -11 9 -5 17 -16 17 -23 0 -8 7 -17 16 -20 9 -4 14 -9 11
-12 -3 -4 12 -24 33 -46 22 -21 40 -43 40 -48 0 -6 3 -10 8 -10 14 0 61 -47
54 -55 -4 -5 -1 -5 6 -1 7 4 15 1 18 -8 3 -9 12 -16 20 -16 8 0 14 -4 14 -10
0 -5 6 -10 13 -10 7 0 20 -9 30 -20 9 -11 24 -20 32 -20 8 0 15 -4 15 -10 0
-5 6 -10 13 -10 7 0 39 -14 71 -30 32 -17 68 -31 81 -32 13 -1 21 -6 19 -10
-3 -4 0 -9 5 -9 6 -1 19 -2 29 -4 9 -1 28 -6 42 -12 14 -6 28 -9 33 -6 4 2 7
-2 7 -9 0 -9 3 -9 10 2 7 12 10 12 10 1 0 -7 6 -11 15 -8 8 4 17 2 21 -4 3 -6
12 -8 19 -5 7 2 17 0 23 -6 6 -6 12 -6 17 2 5 8 10 8 20 0 11 -9 93 -16 120
-10 6 1 12 2 15 0 21 -8 60 -7 60 2 0 6 6 6 15 -2 8 -7 15 -9 15 -4 0 5 21 10
48 11 43 1 82 7 122 17 8 2 30 7 47 11 18 4 31 10 29 14 -2 3 6 7 17 7 19 2
52 9 67 14 3 1 8 2 13 1 4 0 7 4 7 10 0 5 4 8 9 4 5 -3 12 -1 16 5 4 6 11 8
16 5 5 -4 9 -1 9 5 0 6 4 9 9 5 5 -3 17 2 25 11 9 8 16 12 16 8 0 -3 6 -1 13
5 8 6 17 8 20 4 4 -3 7 -1 7 5 0 7 7 12 16 12 8 0 12 5 9 10 -3 6 3 10 13 10
11 0 23 7 26 16 4 9 9 14 12 11 4 -3 15 3 27 14 11 10 27 19 34 19 7 0 10 6 6
17 -4 9 -2 14 3 10 12 -7 64 38 64 55 0 6 3 8 7 5 3 -4 15 5 25 20 10 16 18
24 18 18 0 -5 10 6 21 25 12 19 27 39 35 45 7 5 14 16 16 24 2 7 13 25 26 39
12 14 22 30 22 37 0 7 10 25 22 41 13 15 16 24 8 19 -8 -5 -4 4 8 20 15 19 19
31 11 35 -7 5 -5 9 6 14 9 3 14 10 10 15 -3 5 -1 12 5 16 6 4 8 11 5 16 -4 5
-1 9 5 9 6 0 8 5 5 10 -4 6 -2 16 3 23 6 7 13 30 16 51 4 21 9 48 11 60 13 58
13 97 -1 103 -7 3 -11 10 -7 17 4 6 0 6 -9 -2 -9 -7 -19 -9 -22 -4 -6 10 -36
9 -54 -2 -7 -4 -12 -2 -12 4 0 8 -6 8 -20 0 -15 -8 -20 -8 -20 2 0 8 -3 9 -8
3 -8 -12 -42 -16 -42 -6 0 4 -7 8 -15 8 -8 0 -15 -5 -15 -11 0 -6 -5 -4 -10 4
-9 13 -10 13 -10 0 0 -12 -2 -12 -9 -1 -7 10 -13 11 -31 1 -17 -9 -24 -9 -30
0 -8 13 -16 13 -42 -1 -12 -7 -18 -6 -18 1 0 7 -6 8 -19 0 -14 -7 -20 -7 -23
2 -3 8 -9 8 -24 0 -15 -8 -24 -8 -32 0 -9 9 -12 8 -12 -2 0 -13 -2 -13 -10 0
-6 10 -10 11 -10 3 0 -7 -3 -12 -7 -12 -28 5 -30 1 -35 -51 -1 -11 -5 -20 -8
-20 -4 0 -7 -7 -8 -15 -1 -8 -3 -22 -4 -30 -1 -8 -5 -15 -10 -15 -4 0 -8 -9
-8 -21 0 -11 -4 -18 -9 -15 -5 3 -12 -6 -15 -20 -7 -26 -16 -40 -50 -74 -11
-11 -16 -20 -12 -20 10 0 -69 -71 -81 -73 -4 0 -17 -9 -27 -19 -10 -9 -23 -15
-28 -12 -4 3 -10 -1 -13 -8 -3 -8 -15 -15 -27 -15 -12 -1 -24 -6 -27 -10 -3
-4 -10 -8 -16 -9 -5 0 -35 -4 -65 -9 -30 -5 -64 -9 -75 -10 -11 0 -23 -4 -27
-10 -5 -7 -8 -7 -8 0 0 6 -28 11 -61 12 -34 2 -67 8 -75 14 -7 6 -18 8 -24 4
-5 -3 -10 -2 -10 4 0 6 -6 8 -14 5 -8 -3 -17 -1 -21 5 -3 6 -15 11 -26 11 -10
0 -19 5 -19 10 0 6 -6 10 -13 10 -7 0 -22 8 -33 18 -10 10 -36 30 -56 46 -21
16 -38 35 -38 42 0 8 -7 14 -16 14 -8 0 -12 5 -9 10 3 6 3 10 -2 10 -4 0 -19
21 -33 48 -13 26 -29 50 -35 54 -5 4 -6 8 -1 8 4 0 1 12 -9 26 -9 15 -12 23
-5 19 9 -5 8 -1 -1 16 -7 13 -12 30 -11 37 2 6 -2 12 -8 12 -5 0 -10 7 -10 16
0 10 -6 14 -15 10 -8 -3 -15 -1 -15 5 0 6 -6 7 -12 2 -21 -12 -38 -12 -38 0 0
7 -5 5 -10 -3 -9 -13 -10 -13 -10 0 0 13 -1 13 -10 0 -9 -13 -10 -13 -10 0 0
13 -1 13 -10 0 -7 -11 -10 -11 -10 -2 0 9 -5 10 -19 2 -14 -7 -20 -7 -23 2 -3
8 -10 8 -26 -1 -15 -8 -22 -8 -22 -1 0 6 -5 8 -12 3 -21 -12 -38 -12 -38 0 0
7 -5 5 -10 -3 -9 -13 -10 -13 -10 0 0 13 -1 13 -10 0 -9 -13 -10 -13 -10 0 0
13 -1 13 -10 0 -5 -8 -10 -10 -10 -5 0 12 -59 13 -77 2 -8 -5 -13 -3 -13 3 0
7 -6 8 -19 0 -14 -7 -21 -6 -24 3 -4 8 -6 9 -6 0 -1 -8 -10 -9 -31 -3 -19 5
-28 5 -25 -1z"/>
<path d="M14130 12350 c0 -5 -8 -10 -17 -10 -15 0 -16 -2 -3 -10 8 -5 10 -10
4 -10 -7 0 -10 -28 -8 -85 2 -63 -1 -83 -9 -78 -9 5 -9 3 -1 -8 16 -22 18 -89
2 -89 -9 0 -9 -3 -2 -8 7 -5 11 -62 10 -170 -1 -89 3 -162 7 -162 5 0 5 -5 2
-10 -4 -6 -12 -7 -18 -3 -9 5 -9 3 0 -8 8 -9 12 -52 12 -116 0 -55 2 -107 3
-114 5 -24 28 -41 54 -41 13 0 24 -5 24 -10 0 -6 6 -6 14 1 11 9 15 9 19 -1 3
-7 6 -8 6 -3 1 6 25 9 58 7 32 -1 83 -3 113 -3 30 0 61 -5 68 -11 10 -8 11 -7
6 7 -5 13 -4 16 5 11 7 -4 44 -8 84 -8 40 0 78 -5 86 -12 12 -9 13 -8 6 3 -6
11 -3 13 13 9 13 -4 22 -1 22 5 0 8 3 8 8 2 10 -14 32 -17 32 -4 0 5 5 7 12 3
16 -10 68 -11 68 -1 0 4 9 3 20 -3 14 -8 20 -8 20 0 0 6 5 8 11 4 14 -8 129
-11 129 -3 0 4 16 3 35 -1 24 -5 35 -4 35 4 0 7 4 6 9 -3 5 -8 11 -9 15 -3 3
5 20 8 37 6 18 -2 38 1 45 7 8 7 14 7 19 -1 4 -6 13 -7 23 -1 9 4 27 7 40 6
12 -1 22 2 22 7 0 5 4 7 9 3 5 -3 13 0 17 6 4 8 9 7 15 -2 6 -10 9 -11 9 -1 0
6 7 12 16 12 18 0 124 50 142 67 7 7 20 13 28 13 8 0 12 5 9 10 -3 6 -1 10 4
10 6 0 26 15 45 34 20 18 38 31 41 28 3 -3 5 2 5 11 0 9 5 17 10 17 6 0 10 7
10 15 0 8 5 15 10 15 6 0 10 7 10 15 0 7 8 19 18 24 9 6 13 11 8 11 -5 0 -3 7
4 15 7 8 9 15 4 15 -5 0 -3 4 4 9 7 4 14 16 16 25 1 10 9 22 17 27 8 5 9 9 3
9 -8 0 -7 13 3 43 9 23 17 58 20 77 2 19 8 37 14 38 5 2 6 9 2 15 -11 18 -10
87 1 87 7 0 8 3 1 8 -6 4 -11 21 -11 37 -1 17 -5 39 -9 49 -6 15 -5 17 5 11
10 -6 11 -4 4 6 -5 8 -9 16 -10 19 -11 38 -18 50 -27 50 -6 0 -7 3 -4 6 6 7
-22 63 -33 65 -3 1 -23 2 -45 3 -22 1 -45 5 -52 9 -6 4 -14 3 -18 -3 -3 -5
-11 -10 -16 -10 -6 0 -8 3 -6 8 3 4 -5 7 -18 7 -13 0 -21 -3 -19 -6 2 -3 -10
-6 -26 -5 -17 1 -30 5 -30 10 0 5 -7 2 -17 -5 -13 -11 -17 -11 -20 -2 -3 9
-10 10 -21 4 -9 -5 -26 -5 -37 -1 -11 4 -28 3 -39 -2 -13 -7 -21 -6 -27 3 -7
11 -9 11 -9 -1 0 -9 -3 -11 -8 -5 -10 14 -35 18 -27 5 4 -7 -2 -9 -17 -5 -34
9 -61 9 -80 0 -12 -5 -18 -3 -18 6 0 11 -3 11 -10 -1 -5 -8 -10 -10 -10 -4 0
6 -7 11 -15 11 -8 0 -12 -4 -9 -9 7 -10 1 -10 -29 1 -13 5 -30 5 -37 1 -8 -5
-22 -4 -32 1 -13 7 -18 6 -18 -2 0 -9 -3 -9 -14 0 -10 8 -16 9 -21 1 -4 -7
-12 -7 -26 0 -13 8 -19 7 -19 0 0 -6 -5 -8 -12 -3 -17 9 -47 10 -75 1 -14 -5
-23 -3 -23 3 0 6 -6 6 -18 0 -10 -6 -24 -6 -32 -1 -8 5 -19 6 -25 2 -18 -11
-35 -11 -35 1 0 7 -5 5 -10 -3 -9 -13 -10 -13 -10 0 0 12 -2 12 -9 1 -6 -9
-11 -10 -15 -2 -5 8 -13 8 -28 0 -15 -8 -22 -8 -28 1 -5 9 -9 9 -14 1 -5 -7
-13 -8 -25 -1 -12 6 -22 5 -29 -2 -9 -9 -12 -9 -12 2 0 11 -3 11 -12 2 -7 -7
-17 -8 -29 -2 -11 6 -20 6 -24 1 -5 -9 -54 -5 -64 4 -2 2 -12 0 -22 -6 -14 -7
-19 -6 -19 2 0 8 -4 8 -15 -1 -12 -10 -15 -10 -15 1 0 12 -2 12 -9 0 -6 -9
-11 -10 -15 -2 -5 8 -13 8 -27 1 -10 -6 -19 -7 -19 -2 0 10 -36 9 -46 -1 -4
-3 -15 -2 -25 4 -13 6 -19 6 -19 -1z m680 -94 c0 -6 5 -5 11 1 8 8 20 8 35 3
15 -6 24 -6 24 0 0 6 9 6 25 0 18 -7 25 -6 26 3 0 8 2 8 6 -2 4 -10 7 -10 13
-1 6 9 13 9 28 1 14 -7 23 -8 27 -1 4 6 10 8 15 5 4 -3 27 -6 49 -7 23 -1 41
-6 41 -11 0 -5 7 -4 16 3 13 11 16 10 21 -8 3 -12 9 -20 13 -17 12 8 47 -45
60 -90 14 -46 17 -75 8 -75 -6 0 -8 -7 -4 -15 3 -8 -2 -31 -11 -52 -9 -21 -16
-42 -15 -46 2 -5 -2 -6 -8 -2 -5 3 -13 0 -16 -8 -5 -14 -39 -31 -56 -28 -5 1
-8 -3 -8 -7 0 -5 -18 -8 -40 -6 -28 2 -38 -1 -33 -9 4 -8 1 -7 -9 1 -11 9 -18
10 -23 2 -3 -6 -11 -8 -16 -5 -18 12 -49 14 -49 4 0 -6 -6 -7 -12 -2 -20 12
-78 11 -78 -1 0 -6 -4 -5 -9 2 -4 8 -12 14 -16 14 -4 0 -12 -6 -16 -14 -8 -11
-10 -11 -18 0 -4 8 -12 14 -16 14 -4 0 -12 -6 -16 -14 -5 -7 -9 -8 -9 -3 0 6
-11 12 -26 13 -18 1 -23 -2 -18 -11 6 -9 4 -9 -7 -1 -8 7 -26 10 -41 8 -21 -2
-28 2 -29 14 0 9 -3 30 -5 45 -4 22 -2 27 8 21 10 -5 11 -4 1 7 -7 7 -13 19
-13 27 0 8 5 10 13 6 9 -6 9 -4 1 7 -6 8 -10 39 -9 69 1 30 -3 61 -9 69 -8 11
-8 13 1 8 8 -5 11 3 11 25 -1 65 0 67 40 70 73 6 142 3 142 -6z"/>
<path d="M16332 12355 c4 -4 -2 -16 -13 -26 -12 -10 -18 -23 -13 -30 5 -8 3
-9 -6 -4 -10 6 -12 4 -7 -9 4 -10 3 -15 -3 -11 -6 3 -10 -1 -10 -9 0 -26 -2
-30 -19 -43 -9 -7 -12 -13 -7 -13 5 0 1 -10 -10 -22 -10 -12 -13 -18 -6 -14
11 7 11 4 0 -15 -7 -13 -17 -27 -22 -30 -5 -4 -5 -12 -2 -18 4 -6 2 -11 -4
-11 -6 0 -9 -4 -5 -9 3 -5 -2 -16 -10 -25 -9 -9 -18 -24 -20 -33 -2 -10 -13
-37 -24 -60 -12 -23 -21 -47 -21 -53 0 -6 -4 -8 -10 -5 -6 3 -7 -1 -4 -9 4
-10 1 -16 -7 -16 -7 0 -10 -3 -6 -6 3 -4 -3 -24 -14 -45 -11 -22 -16 -39 -12
-39 5 0 0 -5 -9 -11 -10 -5 -18 -18 -18 -27 0 -10 -5 -23 -12 -30 -7 -7 -8
-12 -3 -12 6 0 4 -4 -3 -9 -7 -4 -14 -15 -16 -23 -1 -8 -9 -26 -18 -39 -8 -13
-19 -39 -22 -57 -4 -17 -12 -32 -17 -32 -5 0 -9 -8 -9 -18 0 -10 -5 -23 -10
-28 -6 -6 -11 -27 -13 -49 -2 -45 -1 -46 118 -47 44 0 86 -6 94 -12 11 -8 13
-8 8 1 -6 9 2 11 28 9 19 -1 35 2 35 7 0 5 8 3 17 -4 9 -8 14 -9 10 -3 -4 7 6
11 31 10 20 -1 43 2 50 7 6 5 12 6 12 1 0 -5 11 -9 24 -9 13 0 22 4 19 9 -3 5
6 7 21 4 14 -3 26 -1 26 5 0 6 3 7 7 4 9 -10 63 53 63 74 0 10 7 22 16 27 8 5
16 16 18 26 1 9 9 25 17 34 8 9 16 22 17 27 8 36 15 46 28 41 8 -3 14 -2 14 3
0 4 22 6 49 5 28 -2 53 1 56 6 4 6 14 7 23 2 9 -4 162 -8 339 -7 178 0 323 -3
323 -7 0 -3 8 -4 18 -2 13 4 23 -8 42 -48 14 -29 24 -56 23 -60 -2 -5 1 -8 5
-8 10 0 37 -51 33 -63 -1 -5 3 -6 9 -2 5 3 10 2 10 -3 0 -5 11 -22 25 -38 14
-16 25 -25 25 -20 0 5 7 3 15 -4 10 -8 15 -9 15 -1 0 7 8 8 27 0 20 -7 28 -6
35 3 6 11 8 11 8 0 0 -7 3 -11 8 -9 4 3 28 2 55 -3 28 -4 47 -3 47 3 0 5 6 4
14 -2 11 -9 15 -9 19 1 3 7 6 9 6 3 1 -10 101 -11 128 -1 8 4 11 1 7 -5 -4 -8
1 -9 15 -4 12 4 28 2 35 -4 10 -8 18 -6 31 9 10 11 23 17 29 13 6 -4 5 1 -3
10 -9 12 -10 17 -2 17 7 0 9 5 4 13 -4 6 -8 15 -9 20 -1 4 -2 8 -4 10 -1 1 -3
11 -5 21 -2 10 -9 22 -15 26 -7 4 -11 10 -10 14 2 12 -24 76 -32 76 -4 0 -8 9
-8 21 0 13 -4 18 -12 13 -10 -6 -10 -4 0 8 11 14 10 18 -3 25 -9 5 -17 19 -18
30 0 12 -6 21 -12 20 -5 -1 -9 7 -7 19 1 12 -4 27 -13 34 -8 7 -15 21 -15 31
0 11 -4 19 -10 19 -5 0 -10 9 -10 20 0 11 -5 20 -11 20 -5 0 -7 5 -4 10 3 6 1
10 -6 10 -7 0 -9 3 -6 6 3 4 1 16 -5 28 -7 11 -11 24 -10 29 1 4 -3 7 -8 7 -6
0 -10 9 -10 20 0 11 -5 20 -11 20 -5 0 -7 5 -3 12 4 6 -1 17 -11 25 -11 7 -15
13 -11 13 5 0 3 7 -4 15 -6 8 -9 18 -6 24 3 5 2 11 -3 13 -5 1 -11 10 -13 18
-2 8 -5 17 -8 20 -10 9 -73 145 -73 158 0 6 -8 12 -17 12 -9 0 -21 5 -28 12
-7 7 -12 8 -12 2 0 -5 -9 -10 -20 -11 -12 -1 -18 3 -14 9 4 7 0 7 -12 1 -22
-11 -64 -11 -81 0 -6 4 -14 3 -18 -3 -3 -5 -11 -10 -16 -10 -6 0 -8 3 -6 8 3
4 -5 7 -18 7 -13 0 -21 -3 -18 -7 2 -5 0 -8 -6 -8 -5 0 -13 5 -16 10 -5 8 -11
8 -19 1 -9 -7 -16 -7 -24 1 -8 8 -12 8 -12 1 0 -12 -32 -12 -41 0 -3 4 -18 3
-32 -2 -15 -6 -27 -7 -27 -2 0 11 -19 9 -37 -2 -7 -5 -13 -4 -13 2 0 6 -6 8
-14 5 -8 -3 -12 -12 -9 -20 3 -8 -1 -14 -8 -14 -10 -1 -9 -4 3 -14 10 -7 15
-16 11 -19 -3 -4 -2 -7 4 -7 6 0 9 -9 5 -22 -3 -14 -2 -19 6 -14 8 5 12 0 12
-13 0 -11 4 -22 9 -25 16 -10 19 -55 4 -60 -22 -9 -25 -7 -17 7 6 9 5 9 -7 1
-9 -8 -68 -12 -170 -11 -86 0 -161 -3 -168 -7 -6 -4 -11 -3 -11 1 0 5 -20 8
-45 7 -37 -1 -45 2 -45 17 0 10 6 24 13 31 8 7 12 19 9 26 -2 6 1 12 8 12 6 0
8 5 5 10 -3 6 0 10 7 10 10 0 10 2 -1 9 -11 7 -10 11 5 20 14 8 15 11 4 11
-13 0 -13 2 -1 9 8 5 15 19 16 30 1 16 -3 20 -16 16 -9 -3 -20 -1 -24 5 -4 7
-13 6 -28 -1 -16 -9 -22 -9 -25 0 -3 9 -7 9 -18 0 -11 -9 -14 -9 -14 0 0 9 -5
9 -21 0 -17 -8 -23 -8 -29 1 -5 8 -13 9 -21 4 -21 -13 -39 -13 -39 -1 0 7 -5
5 -10 -3 -9 -13 -10 -13 -10 0 0 13 -1 13 -10 0 -6 -10 -10 -11 -10 -3 0 9 -7
10 -27 2 -20 -7 -29 -7 -31 1 -3 8 -8 7 -19 -1 -12 -10 -16 -10 -23 1 -7 11
-11 11 -23 1 -10 -8 -17 -9 -22 -1 -4 6 -12 7 -23 1 -11 -6 -25 -5 -37 1 -11
6 -17 7 -13 3z"/>
<path d="M18442 12349 c-13 -5 -28 -7 -33 -3 -15 9 -10 -13 6 -30 8 -8 15 -19
15 -23 0 -13 47 -53 54 -46 3 4 6 -1 6 -10 0 -9 4 -17 10 -17 5 0 21 -10 34
-21 25 -22 27 -49 6 -75 -7 -7 -9 -18 -6 -23 4 -5 0 -13 -7 -18 -17 -10 -72
-95 -69 -106 1 -4 -5 -10 -13 -13 -8 -4 -15 -12 -15 -20 0 -8 -3 -14 -7 -14
-5 0 -17 -18 -27 -40 -10 -22 -23 -37 -29 -33 -6 3 -7 1 -3 -6 4 -6 -2 -23
-13 -37 -11 -15 -18 -31 -14 -37 3 -5 1 -7 -4 -4 -10 7 -28 -20 -25 -35 1 -5
-3 -8 -9 -8 -5 0 -7 -4 -4 -10 3 -5 1 -10 -5 -10 -6 0 -15 -11 -20 -25 -5 -14
-14 -25 -20 -25 -6 0 -8 -4 -5 -10 3 -5 1 -10 -5 -10 -7 0 -10 -5 -8 -12 3 -7
-7 -23 -21 -36 -14 -13 -19 -21 -11 -17 8 4 6 -1 -4 -9 -11 -9 -16 -16 -10
-16 5 0 2 -6 -6 -13 -8 -7 -16 -19 -18 -27 -2 -8 -8 -16 -13 -18 -5 -2 -5 -12
1 -23 6 -10 7 -19 2 -19 -5 0 -9 -7 -9 -15 0 -8 4 -12 8 -9 5 3 18 0 29 -6 15
-8 20 -8 20 2 0 8 3 9 8 3 4 -5 16 -10 27 -10 11 0 23 5 27 10 5 7 8 7 8 0 0
-13 83 -13 92 0 5 7 8 7 8 0 0 -5 23 -10 50 -10 28 0 50 2 50 5 0 7 66 4 79
-5 6 -3 11 -3 11 2 0 4 35 8 78 9 100 1 102 2 138 51 17 23 34 40 38 38 3 -3
4 -2 1 2 -3 3 0 12 6 20 6 7 9 13 5 13 -3 0 3 9 14 20 12 12 18 25 15 30 -4 6
2 10 11 10 10 0 14 3 11 7 -7 6 29 73 46 84 5 3 9 10 9 15 2 23 11 44 19 44 5
0 9 6 9 14 0 7 7 19 15 26 8 7 13 16 10 20 -3 4 1 13 9 19 8 7 17 23 20 37 4
15 11 22 18 18 8 -5 9 -2 5 9 -4 10 -1 17 5 17 6 0 9 3 5 6 -3 3 3 14 14 25
10 10 19 26 19 34 0 8 5 15 11 15 5 0 8 4 4 10 -18 28 94 40 291 31 22 -1 27
-32 10 -60 -6 -9 -5 -12 0 -8 6 3 10 -79 9 -221 0 -125 4 -233 9 -239 5 -9 4
-13 -5 -13 -11 0 -11 -2 1 -10 8 -5 10 -10 4 -10 -7 0 -9 -11 -6 -26 3 -16 9
-23 18 -20 8 3 14 1 14 -5 0 -6 6 -9 13 -6 6 2 36 1 65 -3 28 -3 52 -3 52 2 0
4 10 4 23 -1 12 -4 28 -6 35 -4 7 3 20 -1 29 -9 10 -8 14 -8 10 -1 -5 9 10 11
58 10 36 -1 67 3 69 8 3 6 5 4 5 -4 1 -11 4 -11 16 -1 11 9 15 9 15 1 0 -8 6
-9 18 -3 9 5 25 8 35 7 9 -2 17 1 17 6 0 5 6 8 13 7 6 -2 11 3 9 10 -1 6 3 12
8 12 6 0 8 11 6 25 -3 14 -1 25 4 25 6 0 6 10 0 24 -5 13 -6 27 -3 30 10 9 10
56 0 56 -4 0 -3 9 3 19 7 13 7 22 0 26 -6 4 -7 12 -1 22 5 9 5 29 1 44 -5 15
-6 30 -2 33 10 11 11 56 0 56 -7 0 -7 4 0 13 5 6 8 30 7 52 -2 22 2 46 8 54 9
11 9 13 1 8 -9 -5 -11 24 -10 104 1 61 -2 113 -6 115 -5 3 -5 10 -2 16 10 15
14 78 6 78 -4 0 -6 19 -5 43 2 50 -6 54 -89 44 -25 -3 -38 -1 -38 6 0 7 -5 5
-10 -3 -8 -12 -10 -12 -10 -1 0 11 -3 11 -17 0 -15 -12 -16 -12 -8 1 8 13 7
13 -9 1 -14 -12 -19 -12 -26 -2 -5 9 -13 10 -21 5 -20 -12 -39 -14 -39 -3 0 5
-12 4 -27 -2 -19 -7 -28 -6 -33 2 -6 8 -9 7 -13 -2 -4 -10 -6 -10 -6 -1 -1 6
-6 12 -12 12 -5 0 -7 -5 -3 -11 4 -7 -1 -7 -16 1 -17 9 -21 9 -15 0 6 -9 1
-10 -16 -4 -13 4 -28 7 -34 6 -5 0 -27 -3 -47 -5 -21 -3 -38 -1 -38 5 0 5 -5
6 -11 2 -20 -12 -89 -12 -89 0 0 7 -3 7 -8 1 -10 -15 -74 -16 -65 -1 5 8 3 8
-8 0 -16 -12 -109 -12 -129 1 -9 5 -11 4 -6 -3 5 -8 -1 -11 -18 -10 -15 1 -26
7 -26 13 0 6 -3 7 -8 0 -9 -13 -32 -18 -32 -7 0 5 -7 9 -15 9 -8 0 -12 -4 -9
-9 3 -4 1 -8 -5 -8 -5 0 -13 5 -16 10 -4 6 -12 7 -18 3 -20 -12 -37 -12 -37 0
0 7 -5 5 -10 -3 -8 -12 -10 -12 -10 -1 0 11 -3 11 -16 0 -13 -10 -17 -10 -24
0 -6 11 -9 11 -13 0 -5 -12 -6 -12 -6 0 -1 11 -4 11 -18 0 -15 -12 -16 -12 -8
1 8 13 7 13 -9 1 -14 -12 -19 -12 -26 -2 -5 9 -13 10 -21 5 -20 -12 -39 -14
-39 -3 0 5 -12 4 -27 -2 -20 -7 -29 -7 -31 1 -3 8 -8 8 -18 -1 -11 -9 -14 -9
-14 0 0 9 -5 9 -21 0 -17 -9 -23 -8 -30 2 -7 11 -9 11 -9 -1 0 -9 -3 -11 -8
-5 -9 13 -35 18 -28 6 7 -11 -46 -10 -54 0 -3 4 -16 3 -28 -2z"/>
<path d="M6078 10909 c-6 -4 -18 -5 -26 -1 -10 3 -13 1 -8 -6 4 -7 1 -12 -8
-12 -9 0 -13 -6 -10 -14 3 -7 -2 -20 -10 -29 -8 -8 -12 -17 -9 -21 4 -3 1 -6
-6 -6 -7 0 -9 -4 -6 -10 3 -5 2 -10 -4 -10 -5 0 -8 -9 -6 -20 2 -11 -2 -23
-10 -27 -7 -5 -15 -17 -17 -28 -1 -11 -10 -26 -18 -33 -13 -12 -13 -13 0 -7
12 5 12 4 -1 -7 -9 -7 -15 -21 -13 -30 1 -10 -2 -18 -8 -18 -6 0 -7 -7 -4 -16
3 -8 2 -12 -4 -9 -9 6 -14 -8 -11 -27 0 -5 -4 -8 -10 -8 -5 0 -8 -4 -4 -9 3
-5 1 -12 -5 -16 -6 -4 -8 -11 -5 -16 4 -5 2 -9 -3 -9 -12 0 -33 -56 -25 -64 4
-3 -2 -6 -13 -6 -16 0 -17 -2 -4 -10 11 -7 11 -10 2 -10 -7 0 -10 -5 -7 -10 3
-6 -1 -13 -10 -16 -13 -6 -14 -8 -3 -15 10 -7 11 -9 0 -9 -7 0 -10 -4 -7 -10
3 -5 3 -10 -2 -10 -8 0 -33 -47 -33 -61 0 -4 -8 -24 -17 -45 -9 -22 -16 -42
-15 -46 1 -5 -2 -8 -8 -8 -6 0 -9 -3 -8 -7 1 -5 -3 -18 -10 -29 -6 -12 -8 -24
-5 -28 3 -3 1 -6 -5 -6 -6 0 -9 -9 -7 -20 2 -11 1 -19 -3 -17 -4 1 -9 -2 -10
-8 -2 -5 -10 -21 -17 -35 -20 -37 -28 -63 -26 -79 1 -8 -2 -10 -10 -5 -9 5
-11 1 -7 -14 4 -12 3 -20 -2 -17 -7 5 -23 -31 -21 -47 1 -5 -4 -8 -9 -8 -5 0
-9 -3 -8 -7 1 -5 -3 -18 -10 -29 -6 -12 -8 -24 -5 -28 3 -3 0 -6 -7 -6 -7 0
-10 -3 -7 -7 4 -3 0 -17 -8 -30 -9 -13 -13 -28 -10 -33 3 -6 1 -10 -4 -10 -6
0 -11 -7 -11 -15 0 -8 -5 -15 -11 -15 -5 0 -8 -4 -4 -9 3 -5 1 -12 -5 -16 -6
-4 -8 -11 -5 -16 4 -5 1 -9 -6 -9 -7 0 -9 -3 -6 -7 4 -3 0 -17 -8 -30 -9 -13
-13 -28 -10 -34 4 -5 1 -8 -7 -7 -7 2 -12 -3 -10 -10 1 -7 -3 -23 -10 -35 -7
-12 -13 -29 -14 -37 -2 -8 -7 -16 -13 -18 -5 -2 -7 -10 -4 -18 3 -8 1 -14 -5
-14 -9 0 -27 -47 -24 -62 1 -5 -3 -8 -9 -8 -5 0 -7 -4 -4 -10 3 -5 3 -10 -2
-10 -4 0 -13 -11 -20 -25 -6 -14 -7 -22 -1 -19 5 3 4 -3 -4 -15 -7 -12 -16
-21 -21 -21 -4 0 -6 -4 -2 -9 10 -18 -18 -25 -104 -26 -60 -1 -85 -5 -83 -13
1 -7 -5 -12 -13 -12 -10 0 -14 -9 -11 -30 2 -17 -1 -33 -5 -36 -5 -3 -4 -14 1
-25 8 -13 7 -19 0 -19 -7 0 -8 -6 -1 -18 6 -11 6 -24 -1 -37 -8 -14 -8 -20 0
-23 7 -2 12 -8 12 -13 0 -6 -4 -8 -8 -5 -10 6 -7 -68 4 -85 4 -7 3 -9 -4 -5
-7 4 -10 -1 -9 -14 1 -11 5 -20 10 -20 5 0 5 -6 -1 -12 -12 -15 -12 -25 -1
-56 6 -14 5 -21 0 -17 -6 3 -9 -4 -8 -15 1 -11 5 -20 10 -20 5 0 3 -7 -4 -17
-8 -9 -13 -17 -12 -17 1 -1 6 -14 12 -29 6 -16 7 -26 2 -22 -6 3 -9 -4 -8 -15
1 -11 5 -20 10 -20 5 0 4 -7 -4 -16 -10 -13 -10 -17 2 -25 12 -7 12 -9 -1 -9
-12 0 -12 -2 -2 -9 8 -4 13 -11 13 -15 -3 -20 0 -26 9 -21 6 3 10 3 10 -2 0
-4 23 -8 50 -8 28 0 50 4 50 8 0 4 9 3 20 -3 15 -8 20 -8 20 1 0 8 4 8 15 -1
12 -10 15 -10 15 1 0 12 2 12 9 0 6 -10 10 -10 16 -1 6 9 10 9 16 -1 5 -8 9
-9 9 -3 0 6 26 9 70 8 39 -1 70 1 70 6 0 4 8 7 17 6 20 -1 23 16 24 112 0 47
3 61 12 55 8 -4 8 -1 -1 10 -8 9 -11 20 -8 25 8 14 45 22 52 11 3 -5 14 -4 26
2 16 8 19 8 13 -1 -6 -9 -2 -9 14 -1 11 7 21 8 21 3 0 -4 9 -8 20 -8 11 0 20
4 20 8 0 5 9 4 20 -2 15 -8 20 -8 20 2 0 9 3 9 12 0 8 -8 15 -9 25 -1 9 9 13
8 13 0 0 -9 5 -9 20 -1 14 8 20 8 20 0 0 -7 7 -7 21 1 16 8 20 8 14 -1 -6 -9
-2 -9 14 -1 14 8 21 8 21 1 0 -7 6 -8 18 -1 10 5 24 6 32 1 8 -5 22 -4 32 1
13 7 18 6 18 -2 0 -9 3 -9 14 0 10 8 16 9 21 1 3 -6 12 -7 18 -3 17 10 40 10
55 -1 7 -5 12 -4 12 3 0 8 5 9 17 2 11 -6 24 -6 35 0 9 5 19 6 22 1 5 -9 47
-8 63 1 7 4 14 3 18 -3 4 -7 12 -7 26 0 14 8 19 7 19 -1 0 -8 4 -9 13 0 10 8
17 7 25 -1 7 -7 12 -8 12 -2 0 10 51 11 68 0 7 -4 12 -2 12 4 0 7 6 8 18 1 10
-5 24 -6 32 -1 8 5 21 5 31 -1 12 -6 20 -5 24 1 5 8 11 8 20 0 9 -8 15 -8 20
0 3 6 11 8 16 4 17 -10 59 -12 65 -2 3 4 10 6 15 2 18 -10 59 -12 59 -1 0 5 5
5 13 -2 8 -6 16 -9 19 -6 3 3 11 -1 18 -10 10 -12 10 -15 0 -15 -9 0 -9 -4 -2
-13 7 -8 7 -18 2 -27 -5 -8 -6 -19 -2 -25 3 -5 7 -32 8 -60 2 -78 3 -85 15
-85 5 0 7 5 3 11 -4 8 -1 8 12 2 11 -5 45 -8 77 -7 37 1 57 -2 57 -10 0 -8 3
-8 8 0 9 14 38 24 47 16 10 -10 65 -9 65 1 0 5 6 4 14 -2 11 -9 15 -9 19 1 3
7 6 9 6 3 1 -11 78 -11 89 0 4 4 7 12 7 18 1 7 7 11 15 9 9 -2 11 1 4 10 -12
15 -12 48 -1 66 5 6 4 12 -1 12 -9 0 -9 50 0 66 4 5 3 16 -2 24 -5 9 -4 20 3
29 9 12 9 13 0 7 -7 -4 -13 -3 -13 3 0 5 5 13 11 17 8 4 7 9 -2 14 -10 7 -10
12 0 23 9 12 9 16 -1 19 -11 4 -11 8 0 20 10 13 10 17 0 20 -10 4 -10 8 1 21
7 10 9 17 4 17 -5 0 -9 24 -9 54 1 30 4 52 7 50 4 -2 6 4 4 13 -1 10 -8 17
-16 15 -10 -3 -10 0 0 12 7 8 10 20 7 25 -4 5 -2 12 4 16 6 4 7 11 4 17 -11
18 -13 58 -3 58 5 0 4 9 -3 19 -10 17 -23 20 -88 19 -135 -1 -140 0 -140 22 0
11 -5 20 -11 20 -5 0 -8 4 -4 9 3 6 0 13 -7 18 -12 7 -16 22 -20 60 -1 7 -5
10 -10 7 -4 -3 -8 4 -8 16 0 14 -4 19 -12 14 -7 -5 -9 -2 -6 7 3 8 0 23 -8 33
-7 11 -11 23 -8 27 3 5 0 9 -6 9 -6 0 -8 5 -5 10 3 6 1 10 -4 10 -6 0 -10 3
-9 8 4 13 -13 52 -22 52 -5 0 -6 7 -3 17 5 12 3 14 -7 8 -10 -6 -12 -4 -7 7 3
9 -1 24 -8 35 -8 10 -15 26 -15 36 0 9 -5 17 -11 17 -5 0 -7 5 -4 10 3 6 1 10
-4 10 -6 0 -10 3 -9 8 1 4 -11 36 -27 72 -17 36 -29 68 -27 73 1 4 -3 7 -8 7
-6 0 -10 9 -10 20 0 11 -5 20 -11 20 -6 0 -9 6 -7 12 3 7 -1 19 -9 26 -7 7
-13 22 -13 33 0 11 -6 22 -14 25 -8 3 -13 13 -11 22 1 9 -2 20 -7 23 -5 3 -10
15 -11 27 0 11 -4 19 -8 16 -6 -3 -18 22 -23 48 0 4 -7 13 -13 20 -7 6 -13 19
-13 28 0 8 -8 26 -17 39 -12 18 -13 22 -2 16 9 -5 7 -1 -3 12 -10 11 -18 27
-18 36 0 9 -4 17 -10 17 -5 0 -10 9 -10 20 0 11 -5 20 -11 20 -5 0 -8 4 -5 8
3 5 -4 25 -14 45 -11 21 -17 37 -14 37 3 0 -2 7 -11 16 -9 9 -14 23 -11 30 3
8 1 14 -4 14 -6 0 -10 7 -10 15 0 8 -5 15 -12 15 -6 0 -8 3 -5 7 4 3 -1 15
-10 26 -10 11 -12 17 -5 13 7 -4 4 8 -7 27 -11 19 -17 38 -14 41 4 3 1 6 -6 6
-7 0 -10 4 -7 9 4 5 2 11 -4 13 -5 1 -11 15 -12 30 -1 15 -5 25 -9 22 -6 -3
-10 5 -23 46 -9 27 -33 70 -39 70 -5 0 -5 5 -2 11 4 6 -1 17 -11 25 -11 9 -13
12 -6 9 11 -6 11 -3 1 13 -7 12 -17 18 -21 16 -4 -3 -8 -1 -8 5 0 11 -153 11
-172 0z m89 -921 c8 -13 13 -33 15 -55 1 -7 5 -13 9 -13 5 0 13 -18 19 -40 6
-22 15 -40 20 -40 5 0 6 -7 3 -17 -5 -12 -3 -14 7 -8 10 6 12 4 7 -8 -3 -9 -2
-19 4 -22 5 -4 7 -11 4 -16 -4 -5 -1 -9 5 -9 6 0 8 -4 5 -10 -3 -5 -2 -10 3
-10 6 0 13 -7 16 -16 6 -15 4 -15 -11 -3 -17 13 -17 12 -2 -6 23 -30 40 -75
33 -87 -4 -6 -2 -8 4 -4 6 3 13 -7 17 -26 8 -34 9 -38 44 -105 12 -24 20 -47
17 -52 -4 -5 1 -17 10 -25 8 -9 12 -16 8 -16 -3 0 -1 -7 6 -15 6 -8 9 -18 6
-24 -3 -5 -2 -11 3 -13 5 -1 11 -12 13 -23 1 -11 6 -22 9 -25 4 -3 9 -16 10
-30 4 -23 1 -25 -41 -25 -25 0 -48 -4 -52 -10 -5 -7 -8 -7 -8 0 0 10 -239 12
-265 1 -7 -2 -16 -2 -19 1 -8 9 -116 9 -116 0 0 -5 -5 -5 -12 -1 -7 4 -26 8
-42 7 -38 0 -49 23 -27 56 8 13 17 33 18 44 2 11 9 27 16 36 10 12 9 13 -3 6
-10 -5 -9 -1 3 13 11 11 16 26 12 31 -3 6 -1 11 5 11 6 0 8 5 5 10 -3 6 -2 10
4 10 5 0 8 9 6 21 -3 14 0 19 9 16 9 -4 12 4 11 25 -1 18 4 32 12 35 8 3 12
12 9 19 -3 8 -1 14 4 14 6 0 10 8 10 18 0 10 5 23 12 30 9 9 9 12 -1 12 -7 0
-9 5 -6 10 4 6 11 7 17 4 6 -4 9 -1 6 7 -3 8 1 26 8 40 7 15 10 29 7 33 -4 3
-1 6 5 6 7 0 12 12 12 26 0 14 4 22 10 19 6 -3 7 1 4 9 -3 9 -1 16 6 16 6 0 8
5 5 10 -3 6 -2 10 2 10 5 0 10 10 10 22 1 13 7 24 14 27 8 2 7 6 -2 12 -11 7
-10 9 4 9 10 0 15 5 12 10 -4 6 -1 17 5 25 7 8 9 15 6 15 -4 0 -2 9 4 20 12
23 25 26 37 8z"/>
<path d="M17678 10904 c-3 -2 -16 -7 -28 -9 -13 -3 -26 -8 -29 -12 -3 -5 -13
-9 -21 -11 -8 -2 -17 -8 -18 -13 -2 -5 -8 -7 -13 -3 -5 3 -9 -2 -9 -10 0 -8
-9 -20 -21 -26 -11 -6 -74 -65 -141 -131 -66 -65 -124 -119 -129 -119 -5 0 -8
-3 -6 -7 3 -11 -40 -53 -55 -53 -6 0 -9 -3 -5 -6 8 -8 -25 -44 -35 -38 -7 5
-12 -10 -9 -28 0 -5 -8 -8 -20 -8 -11 0 -18 -3 -16 -7 6 -10 -19 -34 -26 -27
-3 3 -8 -4 -12 -15 -3 -12 -10 -19 -14 -16 -4 2 -14 -7 -21 -20 -7 -13 -17
-22 -22 -19 -4 3 -11 -2 -14 -10 -3 -9 -10 -13 -15 -10 -8 5 -13 -9 -10 -28 0
-5 -2 -7 -7 -7 -17 3 -35 -1 -29 -7 9 -9 -114 -125 -126 -117 -6 3 -7 1 -3 -5
7 -12 -28 -50 -71 -79 -13 -8 -20 -19 -17 -24 3 -5 0 -9 -5 -9 -6 0 -24 -13
-39 -30 -16 -16 -35 -30 -41 -30 -7 0 -9 -5 -6 -11 4 -6 -2 -13 -14 -16 -11
-3 -19 -8 -18 -12 2 -3 -7 -16 -20 -28 -13 -12 -23 -19 -23 -16 0 4 -7 -2 -15
-13 -8 -10 -15 -17 -16 -14 0 3 -2 69 -4 147 -2 78 -6 147 -9 152 -4 5 -2 12
3 16 7 3 7 15 1 29 -5 13 -6 27 -2 30 10 11 8 60 -3 68 -7 5 -7 8 0 8 11 0 11
83 0 100 -3 5 -2 10 3 10 5 0 6 20 2 45 -4 26 -3 48 3 52 5 3 3 9 -4 14 -8 5
-9 9 -4 9 11 0 12 71 1 88 -3 6 -2 13 4 17 6 4 7 11 4 17 -10 16 -10 128 -1
128 5 0 5 5 1 12 -5 7 -8 27 -7 45 0 22 -4 33 -13 33 -8 0 -14 5 -14 10 0 7
-6 7 -19 0 -14 -7 -22 -7 -26 0 -4 6 -12 7 -18 3 -11 -7 -48 -8 -64 -2 -21 6
-69 3 -75 -6 -5 -6 -8 -6 -8 1 0 12 -58 13 -76 1 -6 -3 -14 -3 -18 1 -11 10
-146 10 -139 -1 3 -5 -4 -4 -16 2 -16 9 -21 9 -21 -1 0 -9 -2 -10 -8 -2 -20
32 -27 -23 -26 -208 0 -134 -3 -198 -10 -198 -7 0 -8 -3 -1 -8 14 -10 15 -153
1 -145 -6 3 -5 0 2 -8 6 -7 12 -19 12 -27 0 -8 -5 -10 -12 -6 -9 5 -9 2 1 -9
11 -14 11 -20 0 -34 -8 -10 -9 -14 -2 -10 13 8 12 -30 -2 -52 -6 -10 -4 -12 5
-6 10 6 12 4 7 -7 -3 -9 0 -21 6 -28 8 -9 8 -11 1 -7 -8 5 -11 -16 -9 -71 1
-42 -2 -83 -8 -89 -6 -9 -6 -13 2 -13 7 0 10 -4 6 -9 -3 -5 -1 -12 5 -16 6 -4
7 -12 3 -18 -4 -7 -9 -23 -11 -35 -2 -17 1 -22 10 -16 10 6 10 4 2 -7 -6 -8
-10 -51 -9 -102 1 -48 -2 -90 -7 -93 -5 -3 -5 -10 -2 -16 12 -20 12 -128 0
-121 -8 5 -8 3 0 -8 12 -15 13 -83 2 -94 -4 -4 -3 -17 1 -29 7 -19 8 -124 1
-151 -1 -5 -1 -14 0 -20 8 -30 4 -151 -5 -157 -6 -5 -5 -8 4 -8 11 0 11 -3 0
-17 -10 -11 -10 -14 -1 -9 7 4 12 1 12 -8 0 -9 -6 -16 -12 -16 -9 0 -10 -3 -2
-8 7 -4 10 -44 10 -105 -1 -53 3 -97 7 -97 5 0 5 -4 2 -10 -7 -11 -6 -12 92
-14 53 -1 74 3 78 13 3 7 11 11 18 8 13 -5 39 17 31 26 -9 8 32 27 41 19 5 -4
5 1 2 11 -4 9 -3 17 1 17 14 0 87 70 84 80 -1 6 3 10 9 10 6 0 27 16 46 35 19
19 40 35 46 35 6 0 8 3 4 6 -3 3 17 27 43 54 27 26 46 50 42 54 -3 4 2 4 13 0
11 -4 17 -4 14 0 -8 8 37 56 51 56 6 0 10 7 10 15 0 8 6 14 13 13 6 -2 11 3 9
10 -1 6 5 12 14 12 8 0 12 5 9 10 -3 6 -1 10 4 10 14 0 237 221 234 232 -2 4
0 7 5 7 19 -3 33 2 27 11 -3 6 1 10 9 10 9 0 15 6 13 13 -1 6 4 11 11 10 6 -2
12 4 12 12 0 8 4 15 9 15 5 0 26 17 47 38 20 20 41 36 45 35 5 -2 5 5 2 14 -4
10 -2 14 4 10 6 -4 18 4 27 17 8 14 25 27 36 31 11 4 18 11 15 16 -4 5 -2 9 2
9 5 0 18 7 29 16 10 8 12 13 4 9 -9 -4 -7 0 4 9 13 11 23 12 35 5 14 -9 16
-32 15 -165 0 -85 -4 -157 -7 -161 -4 -3 1 -15 10 -26 10 -11 12 -17 4 -12
-11 6 -12 -1 -8 -39 4 -32 2 -46 -6 -47 -7 0 -3 -4 8 -9 11 -5 14 -9 6 -9 -10
-1 -12 -13 -8 -51 4 -32 2 -50 -5 -50 -7 0 -7 -5 -1 -12 5 -7 8 -43 8 -80 -1
-42 3 -68 9 -68 7 0 6 -3 -1 -8 -14 -9 -13 -52 2 -52 7 0 7 -3 0 -8 -13 -8
-14 -172 -2 -172 5 0 6 -4 3 -8 -3 -5 5 -15 18 -21 29 -16 406 -21 406 -6 0 7
3 7 8 0 9 -12 72 -14 72 -2 0 5 7 6 16 3 8 -3 12 -2 9 3 -3 5 -1 13 5 16 8 5
8 11 0 20 -7 8 -7 15 -1 19 10 7 10 24 -2 43 -4 6 -4 14 1 17 10 6 9 57 -2 75
-6 9 -5 12 1 8 11 -7 12 142 1 159 -4 6 -4 14 0 18 12 12 10 130 -2 145 -8 11
-8 13 2 7 8 -5 12 -1 12 13 0 11 -5 23 -10 26 -6 4 -7 12 -3 18 13 20 12 107
-1 100 -8 -5 -8 -3 0 8 12 17 12 48 0 68 -6 10 -5 12 3 7 14 -9 11 55 -4 66
-7 5 -6 8 0 8 13 0 13 149 1 169 -6 9 -5 12 1 8 6 -4 10 6 11 24 0 19 -3 27
-10 23 -7 -5 -8 -2 -2 7 12 20 12 61 0 78 -8 11 -8 13 0 8 14 -8 14 75 -1 85
-6 5 -6 8 2 8 13 0 13 26 0 46 -3 6 -3 14 1 18 11 12 10 120 -2 135 -8 10 -8
13 0 8 13 -7 13 91 0 112 -6 10 -5 12 2 7 7 -4 12 -1 12 9 0 10 -5 13 -12 9
-7 -5 -8 -3 -2 7 12 20 12 69 -1 69 -6 0 -7 3 0 8 13 9 15 92 2 92 -5 0 -4 7
3 15 10 12 10 15 -1 15 -9 0 -10 3 -4 8 12 9 14 82 2 82 -4 0 -5 4 -2 10 11
18 14 50 5 50 -6 0 -6 10 0 25 5 13 6 27 1 29 -5 3 -7 18 -5 33 5 43 -19 71
-58 70 -19 -1 -38 2 -44 6 -6 3 -13 4 -16 1z m-423 -1104 c3 -5 1 -10 -4 -10
-6 0 -11 5 -11 10 0 6 2 10 4 10 3 0 8 -4 11 -10z"/>
<path d="M3167 10890 c-16 -5 -37 -7 -47 -5 -11 2 -19 1 -18 -3 1 -4 -2 -15
-7 -25 -4 -10 -2 -23 4 -31 9 -10 9 -16 1 -21 -8 -5 -6 -11 6 -19 9 -7 14 -18
11 -23 -4 -6 0 -14 9 -17 8 -3 12 -10 9 -16 -3 -5 -1 -10 4 -10 6 0 11 -7 11
-15 0 -8 5 -15 12 -15 6 0 9 -3 5 -6 -3 -3 5 -24 19 -45 13 -21 24 -43 24 -49
0 -5 5 -10 10 -10 6 0 10 -9 10 -20 0 -11 4 -20 9 -20 5 0 15 -16 22 -35 7
-19 16 -35 21 -35 4 0 4 -7 1 -17 -4 -11 -3 -14 5 -9 11 6 16 -5 14 -26 -1 -3
5 -12 13 -18 8 -7 15 -21 15 -32 0 -10 5 -16 10 -13 6 3 10 -3 10 -14 0 -12 5
-21 11 -21 5 0 7 -4 4 -10 -3 -5 -1 -10 5 -10 6 0 8 -4 5 -10 -3 -5 -2 -10 3
-10 10 0 47 -67 47 -85 0 -5 8 -16 18 -23 10 -8 16 -19 14 -25 -2 -6 5 -20 15
-31 10 -11 18 -26 18 -33 0 -7 5 -13 11 -13 5 0 8 -4 4 -9 -3 -5 0 -15 7 -23
7 -7 20 -26 28 -43 8 -16 21 -36 28 -44 7 -7 11 -20 8 -28 -3 -8 -2 -12 2 -10
4 3 16 -7 27 -22 19 -26 19 -26 0 -11 -13 9 -9 2 8 -20 15 -19 30 -43 34 -52
3 -10 10 -18 15 -18 5 0 7 -4 4 -9 -3 -4 3 -19 14 -31 11 -12 17 -27 14 -31
-3 -5 -1 -9 4 -9 4 0 14 -16 22 -35 8 -19 18 -35 22 -35 5 0 6 -4 3 -10 -3 -5
-1 -10 5 -10 6 0 8 -4 5 -10 -3 -5 -1 -10 4 -10 6 0 11 -9 11 -19 0 -11 4 -21
9 -23 19 -6 21 -61 3 -82 -11 -13 -12 -17 -3 -11 9 5 6 -4 -7 -22 -12 -17 -19
-33 -15 -37 3 -3 1 -6 -6 -6 -7 0 -9 -4 -6 -10 3 -5 2 -10 -3 -10 -9 0 -23
-31 -26 -55 -1 -5 -7 -14 -14 -18 -7 -5 -10 -12 -7 -18 4 -5 -1 -9 -11 -9 -13
0 -14 -3 -4 -15 7 -9 8 -15 2 -15 -5 0 -13 -11 -16 -25 -4 -14 -11 -25 -17
-25 -6 0 -8 -4 -4 -9 3 -5 1 -12 -5 -16 -6 -4 -8 -11 -5 -16 4 -5 2 -9 -3 -9
-8 0 -20 -28 -20 -47 0 -3 -4 -9 -9 -12 -14 -10 -57 -105 -54 -120 1 -7 -2
-10 -8 -6 -6 3 -11 1 -11 -5 0 -15 -42 -104 -53 -111 -5 -4 -3 -9 4 -12 12 -5
12 -6 0 -6 -11 -1 -11 -4 0 -18 12 -15 12 -16 -1 -8 -12 6 -13 5 -3 -5 7 -7
43 -15 80 -18 37 -2 71 -9 75 -16 6 -8 8 -8 8 0 0 12 46 25 55 16 7 -7 174 -9
170 -2 -2 3 30 4 71 3 52 -1 78 2 88 12 7 8 17 11 20 7 4 -3 4 2 0 12 -4 11
-3 17 2 14 10 -7 27 11 32 32 2 8 8 18 14 21 5 3 9 8 9 10 -2 13 13 49 20 49
5 0 9 9 9 20 0 11 3 20 8 20 10 0 32 51 26 61 -3 5 0 9 6 9 6 0 8 5 5 10 -3 6
1 13 9 16 9 3 14 10 11 14 -3 5 -1 11 5 15 6 4 8 11 5 16 -4 5 -1 9 5 9 7 0
10 6 8 12 -3 7 4 19 14 28 10 8 20 25 21 38 1 12 5 22 10 22 4 0 5 5 2 10 -3
6 0 13 8 16 7 2 14 11 15 19 1 8 3 22 4 30 1 8 5 12 10 9 7 -5 12 10 9 29 0 4
4 7 11 7 6 0 9 3 5 6 -3 4 1 13 9 21 8 8 12 18 9 23 -3 4 2 11 10 14 10 3 14
14 11 30 -3 18 -1 23 10 19 9 -3 14 2 16 18 0 13 2 29 2 35 1 6 9 19 19 28 9
10 17 24 17 32 0 9 5 12 12 8 6 -4 8 -3 5 3 -3 5 9 39 27 76 19 36 31 69 28
72 -3 3 -1 5 5 5 6 0 14 11 17 25 4 14 10 24 15 21 4 -3 7 6 6 19 -2 14 2 23
8 22 7 -1 11 4 9 11 -1 6 3 12 10 12 6 0 8 3 5 6 -3 4 -1 16 5 28 7 11 13 26
13 31 1 6 6 9 13 7 8 -1 11 7 8 23 -3 17 -1 23 6 19 8 -5 9 -1 5 10 -4 9 -3
15 1 12 11 -7 29 25 26 46 -1 10 2 16 8 15 6 -1 12 6 13 16 2 10 11 27 21 38
9 10 13 19 8 19 -5 0 0 7 10 15 14 11 16 15 5 15 -10 1 -9 5 5 15 11 8 16 15
12 15 -4 0 3 14 15 32 14 18 17 28 8 24 -11 -6 -11 -5 1 6 8 7 16 20 18 28 2
8 9 18 15 22 7 4 8 8 2 8 -5 0 -4 5 3 12 7 7 12 20 12 31 0 10 5 15 10 12 6
-3 10 1 10 9 0 9 9 31 20 51 11 19 16 35 12 35 -4 0 1 5 10 10 9 6 15 19 13
29 -2 11 3 22 11 25 8 3 14 15 14 26 0 12 4 19 9 15 6 -3 8 3 6 14 -2 11 3 22
11 25 9 3 12 10 9 16 -3 5 -1 10 4 10 6 0 11 3 10 8 -3 18 14 51 24 45 5 -3 7
-1 4 4 -4 6 4 30 17 54 14 24 23 46 20 51 -3 4 0 8 6 8 6 0 8 5 5 10 -3 6 -2
10 3 10 13 0 13 68 -1 77 -6 4 -7 1 -2 -7 6 -10 4 -11 -6 -4 -8 5 -22 9 -31
10 -10 1 -20 3 -23 4 -13 6 -32 6 -47 -2 -11 -5 -18 -5 -18 1 0 5 -14 6 -35 1
-22 -5 -35 -4 -35 2 0 6 -6 5 -15 -2 -12 -10 -15 -10 -15 0 0 10 -3 10 -15 0
-12 -10 -15 -10 -15 0 0 10 -3 10 -15 0 -12 -10 -15 -10 -15 1 0 10 -3 10 -12
1 -13 -13 -32 -17 -25 -4 3 4 -14 6 -36 4 -54 -4 -56 -4 -94 1 -18 2 -33 0
-33 -4 0 -4 -11 -6 -25 -5 -14 2 -30 -3 -36 -10 -6 -8 -15 -11 -20 -8 -5 3 -9
-2 -9 -10 0 -8 -7 -22 -16 -30 -8 -9 -12 -20 -9 -26 3 -5 2 -10 -3 -10 -9 0
-25 -37 -23 -52 1 -5 -4 -8 -10 -8 -5 0 -7 -4 -4 -10 3 -5 1 -10 -6 -10 -7 0
-9 -3 -6 -7 4 -3 2 -12 -4 -20 -6 -7 -8 -13 -5 -13 4 0 0 -7 -9 -16 -9 -9 -14
-21 -12 -28 2 -6 -2 -17 -10 -24 -7 -8 -11 -18 -8 -23 4 -5 1 -9 -5 -9 -6 0
-8 -4 -5 -10 3 -5 1 -10 -5 -10 -7 0 -10 -5 -8 -12 2 -6 -4 -20 -14 -30 -10
-10 -16 -23 -13 -28 4 -6 1 -10 -5 -10 -7 0 -9 -7 -6 -16 3 -8 2 -12 -4 -9 -6
3 -10 3 -11 -2 -3 -29 -9 -47 -21 -54 -7 -5 -9 -9 -4 -9 5 0 1 -10 -10 -22
-11 -13 -13 -18 -4 -13 8 5 5 -4 -8 -19 -12 -16 -19 -32 -16 -37 3 -5 1 -9 -5
-9 -10 0 -27 -38 -23 -52 1 -5 -3 -8 -9 -8 -6 0 -8 -7 -5 -16 3 -8 2 -13 -3
-10 -10 7 -34 -18 -26 -26 11 -11 -17 -56 -31 -51 -8 3 -11 9 -8 14 3 5 1 9
-4 9 -5 0 -15 14 -22 30 -7 17 -17 30 -22 30 -5 0 -6 5 -3 10 3 6 1 10 -6 10
-7 0 -9 3 -6 7 4 3 -1 12 -11 19 -13 10 -14 13 -3 14 11 0 8 6 -7 20 -20 19
-27 34 -19 43 1 2 -6 11 -15 21 -10 10 -18 24 -18 32 0 8 -5 14 -11 14 -5 0
-8 4 -4 9 3 5 -1 15 -8 23 -7 7 -18 24 -25 38 -6 14 -16 32 -21 40 -5 8 -19
38 -32 65 -13 28 -27 52 -31 53 -5 2 -8 12 -8 23 0 10 -4 19 -9 19 -8 0 -17
21 -26 59 -2 8 -7 17 -12 20 -12 9 -45 71 -38 71 3 0 1 6 -5 13 -43 51 -60 66
-61 55 0 -7 -4 -4 -9 7 -5 11 -9 15 -9 9 -1 -12 -50 -12 -69 0 -7 4 -12 2 -12
-5 0 -10 -3 -10 -11 -2 -8 8 -20 8 -35 3 -17 -7 -24 -6 -24 3 0 8 -4 7 -10 -3
-5 -8 -10 -10 -10 -4 0 10 -57 11 -67 0 -3 -3 -13 -1 -22 4 -10 5 -23 5 -31 0
-7 -4 -24 -4 -36 0 -14 6 -26 5 -29 0 -4 -7 -13 -6 -26 0 -14 8 -19 7 -19 -2
0 -10 -2 -10 -9 1 -6 9 -11 10 -15 2 -4 -6 -12 -11 -17 -11 -6 0 -7 5 -4 10 3
6 5 10 3 9 -2 0 -16 -5 -31 -9z"/>
<path d="M7529 10879 c-5 -10 -7 -19 -3 -19 3 0 1 -6 -5 -13 -6 -8 -8 -17 -4
-21 12 -12 10 -116 -2 -116 -7 0 -7 -3 1 -8 11 -8 13 -86 2 -97 -4 -4 -3 -17
1 -29 6 -18 7 -36 0 -111 0 -5 2 -19 4 -31 3 -11 2 -27 -3 -34 -4 -7 -4 -26 0
-41 6 -20 5 -29 -3 -29 -8 0 -8 -3 -2 -8 12 -8 13 -32 2 -49 -5 -7 -5 -13 0
-13 4 0 8 -16 8 -35 0 -19 -4 -35 -8 -35 -5 0 -5 -6 -1 -12 12 -19 12 -48 1
-48 -6 0 -6 -5 0 -12 10 -16 10 -98 0 -115 -5 -7 -5 -13 0 -13 4 0 8 -13 8
-30 1 -16 -3 -30 -8 -30 -4 0 -5 -5 -1 -12 11 -17 11 -58 1 -58 -4 0 -5 -6 0
-12 11 -18 11 -61 0 -75 -5 -7 -6 -13 -1 -13 5 0 9 -11 9 -25 0 -14 -4 -25 -9
-25 -5 0 -4 -6 2 -12 13 -16 13 -30 0 -45 -6 -7 -7 -13 -2 -13 10 0 10 -102 0
-119 -4 -6 -3 -11 2 -11 10 0 9 -30 -2 -48 -4 -6 -3 -12 1 -12 10 0 10 -61 -1
-78 -4 -7 -4 -12 1 -12 4 0 8 -11 8 -25 0 -14 -4 -25 -9 -25 -5 0 -4 -6 0 -12
11 -15 11 -78 0 -96 -4 -6 -3 -12 2 -12 10 0 9 -30 -2 -48 -4 -6 -3 -12 3 -12
10 0 8 -31 -4 -49 -3 -5 -1 -12 3 -15 10 -6 9 -36 -2 -54 -4 -6 -3 -12 1 -12
10 0 9 -102 -1 -118 -3 -6 -2 -13 3 -16 5 -3 7 -19 6 -35 -4 -49 4 -53 126
-55 63 0 120 -5 128 -10 9 -6 12 -5 8 1 -4 6 27 9 83 9 54 -1 90 3 90 9 0 6 5
3 10 -5 9 -13 10 -13 10 0 0 13 1 13 10 0 9 -13 10 -13 10 0 0 12 2 13 9 1 7
-11 11 -10 20 5 8 14 11 15 11 4 0 -11 4 -9 12 5 15 25 18 185 3 185 -5 0 -4
4 3 9 8 4 11 19 8 34 -2 15 0 29 5 33 6 4 7 10 0 17 -5 7 -8 36 -6 65 3 36 1
52 -8 52 -8 0 -8 3 2 9 10 6 12 22 8 55 -4 29 -2 46 5 46 7 0 6 5 -2 15 -7 8
-9 15 -5 15 4 0 1 8 -6 17 -11 13 -11 15 -1 9 11 -6 13 -1 11 20 -2 16 1 35 5
43 6 10 5 12 -2 7 -8 -5 -12 1 -12 14 0 13 4 19 12 14 7 -5 8 -3 3 6 -12 19
-12 170 0 170 7 0 7 3 0 8 -17 12 -12 59 8 72 12 7 17 7 12 1 -3 -6 -1 -11 4
-11 6 0 11 -7 11 -15 0 -8 3 -14 8 -12 4 1 8 -1 9 -6 5 -15 28 -35 36 -30 4 2
7 -3 7 -12 0 -9 4 -14 9 -10 5 3 12 -4 16 -15 3 -11 13 -20 21 -20 8 0 14 -6
14 -12 1 -7 14 -24 30 -38 17 -13 30 -31 30 -39 0 -8 3 -12 6 -8 6 6 37 -24
63 -62 8 -11 18 -18 23 -15 4 3 8 -2 8 -10 0 -9 7 -16 17 -16 9 0 14 -2 11 -5
-7 -7 64 -81 74 -77 5 1 7 -1 6 -5 -2 -5 1 -9 6 -10 5 -1 12 -7 17 -14 9 -15
39 -21 39 -8 0 4 7 6 15 3 8 -4 17 1 21 10 3 9 10 13 15 10 5 -3 9 0 9 5 0 6
11 21 25 33 14 12 23 28 20 36 -2 7 0 10 5 7 13 -8 83 62 75 75 -3 5 1 7 9 4
9 -3 17 2 21 15 3 12 11 19 16 16 8 -6 13 8 10 27 0 4 6 5 13 2 8 -3 17 3 20
14 4 11 14 23 22 26 8 3 12 11 9 16 -4 6 -3 9 2 8 10 -3 79 64 75 74 -1 4 1 7
5 6 5 -2 18 7 31 20 13 13 28 20 35 15 9 -5 9 -4 0 8 -10 12 -8 15 10 15 16 0
22 -6 22 -23 0 -13 -4 -23 -8 -23 -4 0 -3 -9 3 -20 8 -15 8 -20 -1 -20 -8 0
-7 -5 2 -17 12 -15 12 -16 -1 -8 -12 7 -13 6 -3 -6 10 -12 10 -18 1 -27 -7 -7
-8 -12 -2 -12 5 0 10 -9 10 -20 0 -11 -5 -20 -11 -20 -5 0 -3 -5 5 -10 12 -8
12 -10 1 -10 -10 0 -11 -3 -3 -13 7 -8 7 -18 2 -27 -5 -8 -6 -19 -2 -25 11
-17 10 -55 -2 -55 -6 0 -6 -4 2 -12 7 -7 8 -17 1 -30 -6 -11 -6 -18 0 -18 10
0 9 -19 -2 -37 -5 -7 -4 -13 2 -13 9 0 7 -37 -3 -48 -3 -2 -1 -13 5 -23 7 -14
6 -19 -3 -19 -8 0 -9 -3 -3 -8 12 -8 13 -22 2 -39 -5 -8 -3 -13 4 -13 8 0 8
-4 -1 -15 -9 -10 -9 -15 -1 -15 13 0 10 -22 -4 -32 -6 -5 -6 -8 1 -8 12 0 13
-38 1 -56 -3 -6 -3 -14 1 -18 11 -12 9 -60 -2 -68 -8 -5 -7 -8 0 -8 8 0 10
-13 7 -36 -3 -25 -1 -34 6 -30 7 5 9 1 5 -8 -3 -9 -1 -16 6 -16 6 0 8 -4 5
-10 -7 -11 -10 -11 232 -13 94 -1 170 0 168 3 -2 3 20 5 48 5 36 0 51 4 50 12
-2 7 3 10 11 7 16 -6 16 12 2 35 -6 10 -5 12 2 7 8 -5 10 6 8 36 -1 24 1 51 7
62 6 12 6 16 -1 12 -11 -7 -8 76 4 95 4 8 3 9 -4 5 -15 -9 -15 -1 -2 25 6 10
7 19 2 19 -12 0 -9 43 3 52 6 5 4 8 -5 8 -13 0 -13 1 0 10 11 7 11 10 2 10
-10 0 -10 5 -1 21 7 15 8 19 0 15 -10 -6 -7 32 5 72 2 6 0 12 -5 12 -5 0 -5
18 -1 40 4 22 3 40 -2 40 -5 0 -4 9 2 20 6 11 7 20 2 20 -12 0 -9 43 3 52 6 5
4 8 -5 8 -13 0 -13 1 0 10 11 7 11 10 2 10 -10 0 -10 5 -1 21 6 12 7 19 1 15
-6 -3 -9 5 -8 19 0 14 5 25 10 25 6 0 5 5 -2 12 -16 16 -15 31 1 22 8 -5 8 -2
-2 9 -11 14 -11 17 0 17 10 0 10 3 1 12 -16 16 -15 31 1 22 8 -5 8 -2 -2 9
-11 14 -11 17 0 17 12 0 12 2 0 9 -10 6 -10 10 -1 16 9 6 9 10 -1 17 -11 8
-11 11 -1 15 10 4 10 8 1 19 -9 11 -8 14 2 14 11 0 11 3 -1 11 -12 8 -12 12
-2 16 10 4 10 8 1 19 -9 11 -8 14 2 14 11 0 11 3 -1 11 -12 8 -12 12 -2 16 10
4 10 8 1 19 -9 11 -8 14 2 14 11 0 11 2 -1 10 -13 9 -13 11 0 20 12 8 12 10 1
10 -10 0 -11 3 -2 14 9 11 9 15 -1 20 -11 5 -11 7 0 12 10 5 10 9 1 20 -9 11
-8 14 2 14 11 0 11 2 -1 10 -13 9 -13 11 0 20 12 8 12 10 1 10 -11 0 -11 3 -1
15 10 12 10 15 -1 15 -12 0 -12 2 0 9 9 6 10 10 2 16 -9 5 -9 10 -1 20 8 10 7
14 -2 18 -8 3 -8 6 -2 6 8 1 9 14 4 41 -5 26 -3 41 4 44 7 3 7 5 -1 5 -7 1
-13 6 -13 12 0 5 6 7 13 3 9 -6 9 -4 -1 8 -10 12 -10 18 -1 23 8 6 7 10 -2 16
-11 7 -11 9 -1 9 7 0 10 5 7 11 -11 17 -11 89 0 89 6 0 3 5 -5 10 -12 8 -13
11 -1 19 9 6 10 11 2 15 -6 4 -11 12 -11 17 0 6 5 7 12 3 7 -5 8 -3 3 5 -4 7
-7 30 -7 52 0 21 -3 41 -9 44 -12 8 -12 25 2 25 5 0 7 -5 3 -12 -4 -6 -3 -8 4
-4 6 4 8 17 3 34 -5 15 -7 36 -5 47 2 10 -3 26 -9 34 -10 12 -9 13 1 7 10 -6
12 1 7 34 -4 27 -3 40 4 36 6 -4 7 4 1 23 -4 16 -6 32 -2 35 3 3 1 6 -5 6 -6
0 -13 10 -16 22 -5 18 -8 19 -21 8 -9 -7 -16 -8 -16 -3 0 5 -29 9 -64 9 -36 0
-63 -3 -60 -8 3 -4 -2 -8 -11 -8 -8 0 -18 -7 -21 -15 -4 -8 -12 -15 -20 -15
-8 0 -13 -3 -13 -7 3 -21 -2 -33 -13 -31 -7 2 -12 -2 -11 -9 2 -6 -6 -15 -17
-18 -19 -6 -25 -18 -20 -40 1 -5 -1 -7 -5 -3 -8 7 -105 -91 -105 -105 0 -5 -4
-5 -10 -2 -5 3 -10 1 -10 -6 0 -6 -13 -24 -29 -40 -16 -15 -27 -30 -23 -33 5
-6 -13 -10 -30 -7 -5 0 -7 -2 -5 -7 2 -8 -16 -32 -45 -59 -9 -9 -15 -20 -12
-25 3 -5 2 -7 -3 -6 -4 1 -21 -10 -37 -25 -16 -15 -26 -27 -23 -27 4 0 -22
-29 -58 -65 -35 -36 -62 -65 -60 -65 2 0 -25 -29 -58 -65 -125 -130 -138 -145
-130 -145 4 -1 -3 -7 -17 -15 -14 -7 -24 -17 -22 -22 1 -4 -4 -8 -10 -8 -7 -1
-12 -6 -11 -12 1 -6 -9 -13 -22 -16 -23 -4 -30 3 -26 25 0 5 -2 7 -7 7 -17 -3
-35 1 -29 7 5 5 -32 49 -120 139 -24 24 -43 49 -43 55 0 6 -4 9 -9 5 -5 -3
-12 4 -16 15 -3 11 -11 20 -16 20 -6 0 -7 5 -4 10 3 6 1 10 -5 10 -13 0 -46
30 -33 30 4 0 0 5 -10 11 -9 6 -14 15 -11 21 4 6 3 8 -3 5 -5 -3 -32 19 -59
49 -27 31 -72 81 -101 112 -29 30 -50 59 -47 64 3 5 0 7 -8 6 -7 -2 -12 3 -10
10 1 6 -5 12 -15 12 -9 0 -14 3 -10 6 3 3 -7 17 -24 31 -16 14 -26 30 -22 35
3 6 2 8 -4 5 -5 -3 -17 3 -26 14 -9 10 -15 19 -12 19 2 0 -16 20 -41 45 -24
25 -49 45 -54 45 -5 0 -6 8 -3 17 5 13 2 15 -11 10 -10 -4 -15 -3 -11 3 3 6 1
10 -4 10 -6 0 -11 7 -11 16 0 10 -6 14 -15 10 -8 -3 -14 0 -12 7 1 7 -4 11
-10 10 -7 -2 -13 1 -13 5 0 4 -36 8 -80 9 -69 1 -82 -2 -91 -18z"/>
<path d="M9942 10888 c-7 -7 -12 -9 -12 -4 0 4 -7 0 -16 -8 -8 -9 -19 -14 -23
-11 -5 2 -6 -7 -3 -20 2 -14 9 -22 15 -18 6 3 7 1 3 -6 -4 -6 -2 -19 6 -28 11
-14 11 -16 -2 -8 -11 6 -10 3 3 -12 9 -11 17 -27 17 -35 0 -9 7 -19 16 -22 10
-4 14 -12 10 -23 -4 -10 -4 -14 0 -10 8 8 44 -55 37 -66 -2 -4 1 -6 9 -5 8 2
12 -4 10 -14 -2 -10 2 -18 8 -18 6 0 8 -4 5 -10 -3 -5 -2 -10 4 -10 5 0 13
-10 17 -22 3 -13 15 -35 25 -50 11 -14 19 -33 19 -42 0 -9 5 -16 10 -16 6 0
10 -7 10 -15 0 -8 5 -15 11 -15 5 0 7 -4 4 -10 -3 -5 -2 -10 3 -10 9 0 25 -37
23 -52 -1 -5 3 -8 9 -8 6 0 10 -7 10 -16 0 -8 5 -12 10 -9 6 4 9 3 8 -2 -4
-14 13 -53 23 -53 6 0 7 -9 4 -20 -4 -14 -2 -20 7 -18 7 2 12 -3 10 -9 -1 -7
3 -13 9 -13 5 0 7 -4 4 -10 -3 -5 -2 -10 3 -10 6 0 13 -11 16 -25 4 -14 11
-25 16 -25 6 0 10 -9 10 -21 0 -11 5 -17 10 -14 6 3 10 -3 10 -13 0 -11 7 -25
15 -32 8 -7 13 -16 10 -20 -2 -4 4 -15 15 -25 11 -10 17 -22 14 -26 -3 -5 1
-12 10 -15 8 -3 13 -14 11 -25 -2 -10 1 -19 6 -19 5 0 12 -8 16 -17 3 -10 14
-29 24 -43 9 -14 18 -29 20 -35 2 -5 7 -9 10 -8 3 1 6 -4 6 -11 0 -21 33 -86
43 -86 5 0 7 -8 3 -17 -3 -10 -3 -15 2 -11 8 8 35 -35 35 -57 0 -7 7 -18 15
-25 8 -7 12 -16 9 -21 -3 -5 -1 -9 3 -9 5 0 13 -8 20 -18 8 -14 7 -27 -8 -58
-10 -21 -18 -45 -19 -51 0 -7 -4 -13 -10 -13 -5 0 -10 -9 -10 -19 0 -11 -7
-27 -16 -35 -8 -9 -13 -16 -9 -16 3 0 -3 -13 -15 -30 -12 -16 -18 -34 -15 -40
3 -5 1 -10 -5 -10 -6 0 -8 -4 -5 -10 3 -5 1 -10 -5 -10 -7 0 -9 -7 -6 -16 3
-8 2 -12 -4 -9 -6 3 -11 1 -11 -4 -2 -18 -5 -25 -25 -66 -10 -22 -23 -43 -29
-47 -5 -4 -6 -8 -2 -8 4 0 -3 -20 -17 -44 -13 -24 -22 -47 -19 -50 4 -3 1 -6
-5 -6 -5 0 -21 -27 -33 -59 -13 -33 -27 -57 -31 -55 -4 2 -5 -4 -3 -15 2 -11
-3 -22 -10 -25 -7 -2 -13 -11 -11 -18 3 -24 18 -39 33 -34 8 4 11 1 7 -5 -4
-7 10 -10 43 -8 27 1 53 0 59 -2 5 -3 27 -4 49 -3 22 0 43 -4 47 -10 6 -8 8
-8 8 0 0 7 32 11 96 10 53 -1 98 2 101 6 2 5 9 5 16 1 15 -9 57 -10 57 -1 0 4
7 5 15 2 8 -4 15 -1 15 5 0 6 3 10 8 10 17 -3 35 1 29 7 -3 4 1 13 9 21 8 9
13 21 10 28 -2 7 5 15 16 18 14 4 19 11 15 21 -4 9 -2 16 4 16 6 0 8 4 5 9 -4
5 -2 11 3 13 5 1 11 10 13 18 2 8 9 21 16 28 7 8 10 18 7 23 -4 5 -1 9 5 9 6
0 9 4 6 9 -4 5 -1 11 4 13 6 2 12 10 14 18 1 8 8 26 16 40 14 25 16 31 19 51
0 5 6 7 13 3 7 -5 8 -3 4 5 -5 7 0 19 10 27 11 9 13 13 7 9 -7 -3 -13 -2 -13
3 0 6 7 12 15 16 9 3 12 12 8 22 -4 11 -3 15 4 11 7 -4 14 5 18 23 4 16 14 34
23 40 14 8 14 9 2 10 -10 0 -11 3 -4 8 18 12 45 72 38 84 -4 7 -3 8 5 4 7 -5
13 4 18 24 3 18 12 34 19 37 8 3 12 9 9 13 -3 5 -1 11 5 15 6 4 8 11 5 16 -4
5 2 9 12 9 15 0 16 2 3 10 -10 6 -11 10 -2 10 6 0 12 9 12 20 0 11 4 20 9 20
9 0 27 40 22 48 -1 1 6 10 14 19 13 13 14 18 3 24 -10 7 -9 9 5 9 10 0 16 4
13 9 -4 5 -3 11 1 13 14 6 54 98 48 108 -4 6 -1 9 6 8 7 -2 13 2 14 9 0 7 6
18 13 25 6 6 12 18 12 26 0 8 9 27 21 43 11 16 18 33 14 38 -3 6 0 13 7 18 7
4 19 19 26 32 11 19 11 22 0 16 -7 -3 -4 1 6 9 11 9 16 16 10 16 -5 0 -5 3 1
8 14 10 35 49 35 66 0 8 7 22 16 30 8 9 12 16 7 16 -4 0 -2 4 5 9 7 4 14 18
15 29 1 12 4 22 7 22 3 0 11 9 18 21 11 17 11 20 0 13 -7 -4 -2 4 11 19 12 14
20 30 16 36 -3 6 1 14 9 17 9 3 14 10 11 14 -8 12 6 41 16 34 5 -3 6 1 3 9 -3
8 2 20 10 27 9 7 14 16 11 20 -3 4 2 13 10 20 8 7 15 19 15 27 0 8 4 12 9 8 6
-3 8 4 6 15 -2 12 2 23 11 27 8 3 13 12 10 19 -3 9 1 14 12 14 13 0 14 2 3 9
-11 7 -10 11 5 20 11 6 16 11 12 11 -4 0 4 20 18 45 14 25 22 50 19 55 -3 5 3
15 12 22 10 7 19 24 21 38 1 13 7 27 14 31 6 4 8 11 4 17 -3 6 0 13 6 15 10 4
10 6 0 6 -7 1 -10 6 -7 11 3 6 1 10 -5 10 -6 0 -8 5 -5 10 3 6 -1 10 -9 10 -9
0 -16 4 -16 8 0 5 -7 9 -15 9 -8 0 -15 -3 -15 -7 0 -4 -7 -7 -15 -7 -8 0 -15
3 -15 7 0 10 -84 6 -92 -5 -5 -6 -8 -4 -8 5 0 13 -1 13 -10 0 -5 -8 -10 -10
-10 -5 0 6 -9 11 -20 11 -11 0 -20 -4 -20 -9 0 -6 -5 -6 -12 0 -11 8 -33 10
-40 3 -8 -6 -48 -6 -48 1 0 7 -51 3 -78 -6 -7 -3 -10 0 -7 5 9 14 -9 12 -23
-2 -9 -9 -12 -9 -12 1 0 7 -5 9 -12 4 -7 -4 -21 -6 -30 -5 -10 2 -18 -2 -18
-8 0 -6 -4 -8 -10 -5 -5 3 -20 -4 -32 -16 -13 -12 -16 -18 -8 -14 8 5 5 -3 -8
-17 -12 -13 -19 -28 -15 -31 3 -4 1 -7 -5 -7 -6 0 -9 -7 -5 -17 4 -10 2 -14
-4 -10 -7 4 -14 -5 -18 -23 -4 -16 -11 -30 -16 -30 -5 0 -8 -3 -7 -7 4 -13
-24 -73 -34 -73 -5 0 -6 -4 -3 -10 3 -5 -1 -20 -10 -33 -8 -13 -12 -27 -8 -30
3 -4 1 -7 -6 -7 -7 0 -10 -4 -7 -9 3 -5 -1 -14 -9 -21 -8 -7 -12 -16 -9 -21 3
-5 0 -9 -6 -9 -6 0 -9 -4 -5 -9 3 -5 1 -12 -5 -16 -6 -4 -8 -11 -5 -16 4 -5 2
-9 -4 -9 -10 0 -27 -38 -23 -52 1 -5 -3 -8 -8 -8 -6 0 -10 -9 -10 -20 0 -11
-4 -20 -10 -20 -5 0 -10 -9 -10 -20 0 -11 -5 -20 -11 -20 -5 0 -7 -4 -4 -10 3
-5 1 -10 -6 -10 -7 0 -10 -3 -6 -6 3 -3 -3 -22 -14 -41 -11 -19 -17 -39 -13
-44 3 -5 0 -8 -7 -7 -7 2 -14 -3 -15 -9 -1 -7 -3 -16 -4 -20 -1 -5 -2 -11 -1
-15 0 -4 -8 -12 -19 -18 -16 -9 -22 -6 -34 19 -8 15 -12 32 -8 36 4 5 2 5 -5
2 -7 -5 -16 6 -23 28 -6 19 -16 35 -21 35 -5 0 -9 7 -9 16 0 9 -9 29 -21 45
-11 16 -21 38 -22 48 0 11 -5 17 -9 15 -7 -5 -12 10 -9 29 0 4 -4 7 -11 7 -6
0 -9 3 -6 6 4 3 -5 22 -18 41 -13 19 -21 39 -18 44 3 5 0 9 -6 9 -6 0 -8 5 -5
10 3 6 1 10 -4 10 -6 0 -11 5 -11 11 0 6 -10 25 -22 42 -13 18 -16 28 -7 23 7
-4 6 -1 -5 8 -10 8 -15 19 -11 25 3 6 2 11 -3 11 -4 0 -28 39 -52 88 -57 112
-82 152 -97 152 -7 0 -13 6 -13 13 0 9 -2 9 -8 0 -5 -7 -13 -9 -21 -3 -8 4
-24 4 -37 0 -14 -6 -26 -5 -29 0 -5 8 -43 6 -52 -4 -3 -3 -15 -1 -27 4 -13 4
-29 4 -39 -1 -9 -6 -17 -6 -17 -1 0 10 -50 9 -68 -2 -7 -4 -12 -4 -12 1 0 10
-62 9 -78 -1 -7 -4 -12 -3 -12 2 0 5 -7 9 -15 9 -8 0 -15 -3 -15 -7 0 -3 -18
-6 -40 -6 -21 0 -37 3 -34 8 8 12 0 10 -14 -4z"/>
<path d="M12186 10885 c-10 -8 -15 -18 -11 -24 3 -6 1 -11 -6 -11 -9 0 -9 -3
0 -14 9 -11 8 -15 -6 -21 -17 -6 -17 -7 1 -21 11 -8 15 -14 9 -14 -6 0 -9 -17
-7 -40 2 -22 -1 -42 -7 -45 -5 -4 -6 -12 -2 -18 10 -17 11 -77 1 -83 -5 -3 -5
-11 -1 -17 11 -18 10 -67 -2 -67 -7 0 -7 -3 0 -8 6 -4 11 -16 11 -27 0 -11 -5
-23 -11 -27 -7 -5 -7 -8 1 -8 5 0 10 -11 10 -25 0 -14 -5 -25 -10 -25 -8 0 -8
-3 -1 -8 6 -4 11 -16 11 -27 0 -11 -5 -23 -11 -27 -6 -5 -6 -8 0 -8 6 0 10
-11 10 -25 0 -14 -4 -25 -10 -25 -6 0 -6 -3 0 -8 6 -4 11 -16 11 -27 0 -11 -5
-23 -11 -27 -7 -5 -7 -8 1 -8 5 0 10 -11 10 -25 0 -14 -5 -25 -10 -25 -8 0 -8
-3 -1 -8 6 -4 11 -16 11 -27 0 -11 -5 -23 -11 -27 -7 -5 -7 -8 1 -8 5 0 10
-11 10 -25 0 -14 -5 -25 -10 -25 -8 0 -8 -3 -1 -8 6 -4 11 -16 11 -27 0 -11
-5 -23 -11 -27 -7 -5 -7 -8 1 -8 5 0 10 -11 10 -25 0 -14 -5 -25 -10 -25 -8 0
-8 -3 -1 -8 6 -4 11 -16 11 -27 0 -11 -5 -23 -11 -27 -7 -5 -6 -8 1 -8 12 0
13 -38 1 -57 -4 -6 -3 -14 1 -17 10 -6 10 -46 -1 -63 -4 -6 -3 -14 2 -18 7 -3
7 -15 1 -29 -5 -13 -6 -27 -2 -30 9 -10 8 -86 -2 -86 -5 0 -4 -6 1 -12 11 -15
11 -28 0 -45 -5 -7 -4 -13 0 -13 5 0 9 -11 9 -25 0 -14 -4 -25 -9 -25 -6 0 -6
-5 0 -12 11 -15 11 -28 0 -45 -5 -7 -4 -13 0 -13 5 0 9 -11 9 -25 0 -14 -4
-25 -9 -25 -6 0 -6 -5 0 -12 11 -15 11 -28 0 -45 -5 -7 -4 -13 0 -13 5 0 9
-11 9 -25 0 -14 -4 -25 -9 -25 -6 0 -6 -5 0 -12 11 -15 11 -28 0 -45 -5 -7 -4
-13 2 -13 8 0 8 -20 1 -40 -1 -3 -1 -9 0 -15 8 -33 6 -65 -4 -65 -7 0 -7 -3
-1 -8 13 -10 17 -62 4 -62 -6 0 -7 -6 -2 -12 4 -7 9 -33 10 -58 4 -65 5 -66
22 -69 59 -6 239 -5 255 2 11 5 16 5 13 0 -3 -5 28 -9 74 -9 43 1 79 5 79 10
0 6 7 1 16 -10 8 -10 13 -13 9 -6 -6 11 21 18 49 13 5 -1 6 5 3 13 -4 9 -2 18
2 21 5 2 7 28 4 56 -4 41 -2 50 9 43 10 -6 11 -5 2 7 -15 20 -16 61 -1 52 9
-5 9 -3 1 8 -13 16 -12 158 0 178 6 9 5 12 -1 8 -12 -8 -10 105 2 142 5 18 10
20 21 10 11 -9 14 -8 14 2 0 12 2 12 9 0 6 -9 10 -10 16 -2 5 9 11 9 22 0 11
-10 16 -10 23 0 6 11 9 11 13 0 3 -8 6 -9 6 -3 1 8 12 9 36 4 24 -5 35 -4 35
4 0 6 5 4 10 -4 7 -11 10 -11 10 -2 0 10 5 10 20 2 15 -8 20 -8 20 2 0 9 3 9
10 -2 9 -13 10 -13 10 0 0 13 1 13 10 0 9 -13 10 -13 10 0 0 13 1 13 10 0 9
-13 10 -13 10 0 0 13 1 13 10 0 8 -12 10 -12 10 -1 0 11 3 11 15 1 8 -7 15 -8
15 -3 0 5 15 8 32 7 18 -1 36 3 40 9 4 7 8 8 8 2 0 -10 54 -11 80 -1 8 3 26 7
40 8 14 2 31 7 38 11 7 5 12 3 12 -4 0 -7 7 -4 15 7 8 10 15 15 15 10 0 -5 7
-3 15 4 8 7 15 9 15 6 0 -4 10 -1 23 6 12 7 28 11 36 9 7 -1 11 1 8 6 -3 5 6
13 19 20 18 8 22 8 17 0 -4 -7 1 -6 10 2 9 7 14 18 10 24 -3 6 -1 7 5 3 11 -6
32 7 74 47 10 9 23 17 28 17 6 0 9 6 8 13 -2 6 2 11 9 10 6 -2 15 6 18 17 4
11 13 20 21 20 8 0 13 4 9 9 -3 5 8 24 25 42 16 19 30 39 30 47 0 7 4 11 8 8
4 -2 9 5 9 16 1 12 6 24 11 27 10 7 48 103 44 114 -1 4 2 7 8 7 5 0 10 5 10
11 0 5 -6 7 -12 4 -7 -4 -6 -1 3 7 9 7 14 19 11 27 -3 10 0 11 9 5 12 -7 12
-5 0 9 -8 10 -9 17 -3 17 6 0 9 9 7 20 -2 11 1 22 6 26 6 4 6 11 -2 20 -6 8
-7 14 -2 14 5 0 11 19 12 43 1 23 3 53 5 67 1 14 -2 33 -7 43 -5 11 -4 17 5
17 8 0 9 3 3 8 -5 4 -10 16 -9 27 0 11 -4 26 -9 33 -6 8 -5 12 4 12 12 0 12 2
0 9 -8 5 -12 19 -9 35 3 14 2 23 -3 21 -4 -3 -10 -1 -13 4 -4 5 -1 13 5 17 6
3 7 9 3 13 -15 10 -37 54 -24 46 11 -7 -11 43 -46 108 -8 15 -12 27 -9 27 3 0
-6 12 -20 26 -14 14 -23 29 -21 33 6 10 -68 91 -83 91 -6 0 -10 6 -8 13 1 6
-4 11 -10 10 -7 -2 -13 3 -13 10 0 13 -40 43 -52 39 -5 -1 -8 4 -8 11 0 12
-44 37 -67 37 -7 0 -13 3 -13 8 0 7 -63 32 -87 34 -7 1 -13 6 -13 11 0 5 -7 7
-15 4 -8 -4 -17 -2 -20 2 -3 5 -14 7 -25 4 -11 -3 -20 -1 -20 3 0 9 -49 16
-132 17 -27 1 -48 5 -48 10 0 4 -9 3 -19 -3 -14 -7 -22 -7 -26 0 -5 8 -11 7
-21 -1 -8 -6 -14 -7 -14 -2 0 11 -29 11 -48 -1 -6 -4 -12 -3 -12 2 0 10 -50 9
-68 -2 -7 -4 -12 -3 -12 3 0 5 -8 8 -17 6 -10 -2 -18 -4 -18 -5 0 -6 -57 -4
-61 2 -5 8 -59 2 -75 -8 -4 -2 -10 0 -13 4 -6 11 -46 10 -63 -1 -7 -5 -13 -4
-13 1 0 10 -30 9 -48 -2 -6 -4 -12 -3 -12 2 0 10 -72 8 -89 -2 -5 -4 -12 -2
-16 3 -5 10 -42 7 -53 -4 -3 -2 -11 0 -18 6 -8 7 -14 7 -19 -1 -4 -7 -12 -7
-26 0 -14 8 -19 7 -19 -1 0 -7 -4 -8 -12 -2 -12 8 -26 9 -45 3 -17 -5 -38 -5
-43 2 -3 3 -13 0 -24 -7z m1505 -282 c13 -16 12 -17 -3 -4 -17 13 -22 21 -14
21 2 0 10 -8 17 -17z m-660 -181 c12 5 19 3 19 -5 0 -7 3 -8 8 -2 8 12 53 15
46 4 -2 -4 0 -10 5 -13 5 -4 12 -2 16 3 8 14 66 -7 88 -33 10 -11 15 -14 11
-6 -4 8 4 4 17 -10 14 -14 24 -27 23 -29 -2 -2 3 -10 11 -18 8 -8 15 -23 15
-34 0 -10 5 -19 11 -19 5 0 8 -4 4 -9 -3 -5 -1 -12 4 -15 5 -3 7 -15 4 -26 -3
-11 -1 -20 4 -20 17 0 1 -202 -18 -226 -5 -6 -6 -14 -2 -17 3 -4 1 -7 -6 -7
-7 0 -9 -4 -6 -10 3 -5 1 -10 -5 -10 -6 0 -8 -4 -5 -10 3 -5 1 -10 -4 -10 -6
0 -11 -7 -11 -15 0 -8 -9 -19 -20 -25 -11 -6 -17 -16 -14 -22 5 -7 2 -8 -6 -3
-7 4 -15 2 -20 -4 -4 -7 -17 -13 -28 -14 -12 -1 -22 -5 -22 -9 0 -4 -13 -6
-30 -4 -17 2 -30 -1 -30 -8 0 -6 -5 -4 -10 4 -5 8 -10 10 -10 5 0 -6 -9 -11
-20 -11 -11 0 -20 4 -20 9 0 4 -5 5 -11 1 -18 -11 -89 -10 -90 1 0 7 -2 7 -5
0 -5 -11 -116 -11 -135 0 -8 5 -10 4 -5 -3 4 -7 2 -12 -3 -12 -6 0 -11 5 -11
11 0 8 -5 8 -15 -1 -12 -10 -15 -10 -15 1 0 12 -2 12 -9 1 -6 -11 -11 -10 -25
3 -18 19 -21 35 -5 35 5 0 7 6 2 12 -10 18 -11 248 0 248 4 0 5 6 0 13 -12 18
-10 157 2 157 6 0 6 3 -1 8 -8 5 -11 93 -5 134 1 3 26 5 56 5 30 -1 55 0 55 3
0 3 45 3 101 0 55 -3 109 -2 120 2z"/>
<path d="M14131 10891 c-7 -5 -22 -6 -32 -4 -10 3 -21 -1 -24 -8 -11 -29 -11
-85 -1 -98 7 -10 7 -13 1 -9 -7 4 -11 -21 -11 -72 0 -51 4 -76 11 -72 6 4 6 0
-1 -9 -6 -8 -10 -50 -8 -94 2 -105 2 -107 14 -100 6 3 10 1 10 -6 0 -8 3 -9
13 0 8 6 17 8 20 5 8 -8 143 -8 156 0 5 4 14 -2 20 -11 6 -11 11 -13 11 -5 0
9 12 12 40 9 25 -2 40 0 40 7 0 7 3 7 8 1 4 -5 14 -10 22 -10 8 0 18 5 22 10
5 7 8 7 8 0 0 -5 18 -10 40 -10 22 0 40 4 40 9 0 5 6 3 13 -3 8 -6 17 -8 21
-4 13 14 25 -21 13 -36 -7 -8 -7 -12 -2 -9 6 4 11 -17 12 -53 1 -42 -2 -57
-10 -52 -7 4 -6 -1 2 -10 10 -13 11 -20 2 -31 -7 -8 -8 -17 -3 -19 10 -7 9
-187 -1 -204 -4 -6 -4 -14 1 -17 10 -6 9 -287 -1 -303 -4 -6 -3 -14 2 -17 5
-3 7 -33 5 -66 -2 -41 1 -60 9 -60 8 0 8 -3 2 -8 -16 -10 -17 -64 -3 -74 8 -4
9 -8 2 -8 -7 0 -10 -29 -9 -81 0 -44 -3 -83 -8 -86 -4 -2 -4 -10 1 -16 11 -15
9 -108 -2 -126 -6 -8 -5 -12 0 -8 5 3 9 -48 9 -124 0 -82 -3 -129 -10 -129 -5
0 -4 -4 3 -9 7 -4 12 -12 11 -17 -5 -26 2 -74 10 -69 5 3 12 2 14 -2 3 -5 47
-8 99 -7 58 1 96 -3 100 -10 6 -8 8 -8 8 0 0 8 31 11 95 10 52 0 95 3 95 8 0
5 7 3 15 -4 12 -10 15 -10 15 0 0 9 3 10 14 1 10 -9 15 -8 20 4 3 8 12 15 20
15 17 0 27 65 12 80 -6 6 -6 10 -1 10 6 0 9 53 8 127 -1 88 3 130 10 135 9 6
9 8 1 8 -16 0 -15 462 0 472 8 5 8 8 0 8 -16 0 -16 420 0 420 7 0 7 3 -1 8 -8
5 -11 28 -10 65 2 35 -1 57 -7 57 -8 0 -8 3 0 8 6 4 9 36 8 75 -1 48 1 65 9
61 8 -4 7 -2 0 7 -7 7 -13 19 -13 27 0 8 5 10 13 6 9 -6 9 -5 0 7 -15 19 -1
44 21 36 8 -3 18 -1 22 5 4 7 9 6 15 -3 7 -11 9 -11 9 -1 0 10 5 10 20 2 11
-6 20 -7 20 -2 0 11 53 9 62 -3 5 -6 8 -5 8 2 0 7 6 10 14 7 23 -9 306 -10
306 -1 0 5 3 6 8 4 4 -3 7 28 7 68 0 40 -3 71 -6 69 -3 -1 -6 3 -6 11 0 8 3
12 7 10 11 -7 6 129 -5 137 -7 5 -7 8 0 8 6 0 11 11 11 25 1 14 -2 22 -7 19
-5 -3 -6 5 -1 18 4 13 5 39 2 59 -4 30 -9 36 -27 34 -13 -1 -23 2 -23 5 0 9
-53 6 -68 -4 -6 -3 -14 -2 -17 4 -5 8 -11 8 -19 1 -7 -6 -15 -9 -18 -6 -9 9
-68 12 -74 4 -2 -4 -15 -4 -28 1 -15 5 -27 5 -35 -3 -7 -7 -11 -7 -11 -1 0 12
-49 12 -68 0 -7 -4 -12 -3 -12 2 0 5 -7 9 -15 9 -8 0 -15 -5 -15 -11 0 -8 -3
-8 -8 -1 -8 13 -92 14 -92 2 0 -4 -4 -5 -10 -2 -20 12 -50 14 -50 2 0 -8 -3
-8 -8 -2 -9 13 -123 15 -115 2 4 -6 1 -7 -8 -1 -18 11 -171 13 -186 2 -6 -5
-14 -5 -16 0 -7 11 -158 9 -176 -3 -9 -5 -12 -4 -8 2 7 11 -182 11 -199 0 -6
-3 -14 -3 -18 1 -10 10 -86 9 -86 -1 0 -4 -6 -5 -12 0 -20 12 -37 12 -44 1 -4
-7 -9 -7 -13 0 -4 6 -12 7 -20 3z"/>
<path d="M18996 10892 c-3 -5 -24 -9 -46 -8 -22 1 -40 -1 -40 -5 0 -4 -10 -5
-22 -1 -15 4 -19 2 -13 -7 6 -10 3 -11 -13 -2 -12 6 -23 8 -26 3 -2 -4 -19 -9
-37 -10 -18 -2 -36 -6 -39 -10 -5 -7 -27 -14 -47 -15 -7 0 -13 -4 -13 -9 0 -4
-3 -7 -7 -7 -5 1 -11 0 -15 -1 -5 -1 -11 -3 -15 -4 -26 -7 -62 -30 -57 -37 3
-5 -2 -6 -10 -3 -9 3 -16 1 -16 -6 0 -6 -4 -9 -9 -6 -5 3 -11 -1 -15 -9 -3 -8
-11 -15 -17 -15 -6 0 -22 -11 -35 -26 -13 -14 -24 -21 -25 -17 0 4 -4 0 -8
-10 -4 -10 -10 -17 -14 -15 -6 3 -44 -44 -39 -49 1 -2 -6 -12 -15 -22 -31 -34
-39 -45 -53 -78 -8 -18 -19 -33 -23 -33 -5 0 -5 -4 -2 -10 3 -5 1 -10 -6 -10
-7 0 -10 -3 -6 -6 3 -4 0 -19 -9 -35 -8 -16 -12 -29 -9 -29 3 0 0 -10 -7 -22
-13 -25 -14 -29 -16 -71 -1 -18 -6 -26 -13 -21 -8 5 -8 1 0 -13 6 -11 8 -23 5
-25 -11 -12 -12 -48 -1 -48 9 0 8 -3 -1 -9 -8 -5 -11 -19 -7 -39 3 -21 1 -32
-6 -32 -8 0 -6 -7 4 -18 10 -10 14 -22 10 -26 -10 -9 -13 -36 -4 -36 4 0 7
-18 8 -40 1 -22 5 -46 10 -53 4 -6 9 -18 10 -24 5 -22 10 -37 24 -73 7 -19 12
-38 11 -42 -1 -5 3 -8 9 -8 5 0 7 -4 4 -10 -3 -5 1 -10 9 -10 8 0 13 -6 10
-13 -2 -7 5 -22 16 -34 11 -12 20 -27 20 -33 0 -5 4 -10 8 -10 5 0 15 -11 22
-25 7 -14 20 -25 27 -25 8 0 11 -5 8 -10 -3 -6 1 -13 9 -16 9 -3 13 -10 10
-15 -3 -5 3 -6 12 -2 10 3 15 2 12 -3 -2 -5 6 -19 19 -31 13 -12 23 -20 23
-16 0 3 7 0 15 -7 13 -11 12 -16 -7 -43 -13 -18 -16 -27 -7 -22 7 4 4 -2 -8
-14 -13 -12 -23 -29 -23 -37 0 -8 -4 -13 -9 -10 -8 6 -26 -40 -22 -57 1 -5 -3
-6 -8 -3 -11 7 -52 -69 -43 -80 4 -4 1 -4 -5 0 -8 4 -13 1 -13 -8 0 -9 -5 -16
-11 -16 -5 0 -7 -5 -4 -10 3 -6 -1 -13 -9 -16 -9 -3 -13 -10 -10 -15 6 -10
-20 -51 -28 -44 -3 3 -8 -1 -12 -10 -4 -11 -2 -14 7 -9 11 7 -19 -33 -34 -46
-4 -3 -9 -15 -13 -27 -4 -13 -12 -23 -17 -23 -6 0 -7 -4 -4 -10 3 -5 1 -10 -5
-10 -6 0 -9 -4 -6 -8 3 -5 -4 -14 -14 -22 -10 -8 -17 -17 -14 -22 3 -4 0 -8
-6 -8 -6 0 -8 -4 -5 -10 3 -5 1 -10 -4 -10 -6 0 -11 -6 -11 -14 0 -8 -10 -22
-22 -30 -12 -9 -19 -16 -14 -16 5 0 3 -7 -4 -15 -7 -8 -10 -21 -7 -30 4 -8 2
-17 -3 -20 -6 -4 -5 -12 3 -19 6 -8 15 -12 20 -9 4 2 7 0 7 -4 0 -5 9 -9 20
-10 13 -1 18 2 13 10 -4 7 -1 7 10 -1 9 -8 21 -11 27 -7 5 3 10 1 10 -5 0 -6
5 -8 12 -4 7 4 33 6 58 5 57 -5 312 -4 363 0 21 2 37 8 37 16 0 7 7 10 17 6
12 -5 15 -2 10 9 -3 10 0 19 9 22 8 3 14 12 14 19 0 8 10 25 23 39 12 14 23
32 25 39 2 8 8 16 13 17 5 2 9 9 9 17 0 7 7 18 15 25 8 7 12 16 9 21 -3 5 -1
9 4 9 6 0 15 14 21 31 6 17 15 28 21 24 6 -4 10 -3 9 2 -4 15 13 63 22 63 5 0
9 7 9 15 0 8 5 15 12 15 6 0 8 3 5 7 -4 3 5 22 20 41 15 20 20 32 12 28 -8 -4
-6 -1 3 7 10 8 15 17 11 20 -3 4 1 9 10 13 9 3 14 11 11 19 -3 7 2 15 10 18 9
4 16 13 16 21 0 7 7 16 15 20 8 3 14 11 13 18 -2 7 5 12 15 12 9 -1 17 1 17 5
0 10 32 7 49 -4 10 -5 12 -4 7 3 -9 14 -9 14 32 3 18 -6 30 -6 28 -3 -7 12
108 8 116 -3 5 -6 8 -5 8 3 0 7 5 10 10 7 6 -4 8 -11 5 -16 -4 -5 -2 -9 2 -9
11 0 11 -385 0 -396 -4 -4 0 -16 10 -26 11 -13 12 -18 3 -18 -9 0 -10 -4 -2
-13 6 -7 8 -18 4 -24 -12 -19 -7 -60 9 -79 8 -10 9 -15 3 -11 -6 3 -11 0 -11
-8 0 -8 3 -13 5 -10 3 3 10 1 16 -4 19 -15 56 -20 56 -8 0 8 3 8 8 2 11 -16
395 -14 405 2 4 7 14 13 21 13 9 0 12 17 11 59 0 33 1 58 4 56 4 -2 6 8 6 21
0 13 -2 24 -5 24 -3 0 -6 9 -7 20 -1 12 3 18 9 14 7 -4 7 0 -1 13 -7 14 -7 23
1 31 7 7 8 12 3 12 -13 0 -13 73 0 82 7 5 7 8 0 8 -11 0 -11 72 0 89 3 5 1 11
-4 13 -5 2 -6 24 -2 50 5 27 6 50 3 53 -8 8 -8 65 0 65 4 0 4 10 -1 23 -5 12
-5 31 -1 42 4 11 6 23 3 27 -8 15 -8 88 0 88 5 0 5 6 -1 13 -7 8 -7 18 -2 27
12 18 13 33 3 27 -12 -8 -9 107 2 115 7 5 7 8 0 8 -11 0 -11 73 0 90 3 6 2 10
-4 10 -11 0 -9 19 3 39 7 11 6 12 -5 6 -12 -7 -12 -6 -1 7 7 9 9 18 5 21 -10
6 -9 149 1 165 3 6 2 14 -4 17 -8 5 -7 11 1 21 6 8 8 14 3 14 -5 0 -9 11 -9
25 0 14 4 25 8 25 5 0 5 5 2 11 -11 16 -12 69 -2 69 4 0 5 5 2 11 -10 15 -11
200 -2 206 4 3 2 12 -5 21 -10 12 -10 16 0 19 6 3 9 10 5 15 -3 6 -7 75 -8
152 -1 78 -3 143 -5 146 -1 3 -1 9 0 15 1 5 -2 7 -5 3 -4 -4 -17 -3 -28 3 -14
8 -18 8 -13 0 4 -6 2 -11 -3 -11 -6 0 -11 4 -11 8 0 5 -13 8 -30 8 -16 0 -30
-3 -30 -8 0 -5 -8 -4 -18 1 -11 6 -24 6 -32 1 -8 -5 -19 -5 -25 0 -11 9 -46 7
-64 -5 -5 -3 -12 -1 -15 3 -6 10 -66 10 -82 -1 -6 -3 -14 -3 -18 1 -11 10
-106 10 -106 0 0 -5 -8 -4 -18 1 -13 7 -23 6 -30 -1 -8 -8 -12 -8 -12 -1 0 8
-52 10 -97 2 -4 -1 -10 0 -13 1 -18 7 -50 5 -50 -4 0 -6 -4 -6 -12 2 -7 7 -17
8 -30 1 -11 -6 -18 -6 -18 0 0 9 -45 6 -62 -5 -4 -3 -8 0 -8 6 0 7 -6 8 -18 1
-13 -7 -23 -6 -30 1 -9 9 -12 9 -12 0 0 -13 -21 -12 -31 2 -4 4 -9 4 -13 -2z
m274 -471 c0 3 18 3 40 -1 23 -4 40 -3 40 2 0 5 6 6 13 1 6 -4 20 -6 30 -5 9
2 17 -2 17 -8 0 -6 -5 -8 -12 -4 -10 6 -10 5 -1 -7 6 -8 10 -31 9 -52 -2 -21
1 -40 6 -43 4 -3 4 -13 0 -22 -5 -9 -8 -42 -6 -72 2 -34 -1 -57 -9 -62 -9 -6
-9 -8 0 -8 7 0 10 -15 8 -40 -2 -22 1 -38 6 -35 5 4 6 -1 3 -9 -3 -9 -11 -13
-18 -9 -8 5 -8 3 0 -8 15 -18 13 -134 -2 -149 -12 -12 -21 -13 -102 -8 -30 2
-52 -1 -52 -7 0 -5 -7 -1 -15 9 -8 11 -15 15 -15 9 0 -7 -24 -11 -60 -12 -46
0 -59 3 -54 12 6 9 4 9 -8 -1 -17 -14 -128 -15 -128 -1 0 5 -7 6 -15 3 -8 -4
-15 -1 -15 6 0 6 -5 8 -10 5 -6 -3 -16 0 -24 7 -8 7 -22 21 -32 30 -30 27 -43
45 -37 52 4 3 1 6 -6 6 -8 0 -11 8 -8 20 3 11 1 18 -3 15 -13 -8 -20 10 -24
63 -2 27 -6 54 -10 60 -3 6 -2 13 3 16 5 3 7 16 3 28 -4 16 -2 19 9 13 12 -8
12 -6 0 8 -8 10 -9 17 -3 17 6 0 9 9 7 20 -2 11 1 22 6 25 5 4 6 11 3 17 -4 6
-2 8 4 4 6 -3 13 3 17 14 3 11 11 20 16 20 6 0 8 3 6 8 -3 4 7 16 21 26 15 12
22 14 17 5 -8 -12 -6 -12 8 0 9 7 14 17 12 22 -3 4 6 6 20 3 14 -2 25 0 25 4
0 5 43 9 96 10 53 0 97 2 99 4 2 2 31 1 65 -2 33 -3 60 -3 60 1z"/>
</g>
</svg>
